<?xml version="1.0" encoding="utf-8"?>
<!-- Generator: Adobe Illustrator 22.1.0, SVG Export Plug-In . SVG Version: 6.00 Build 0)  -->
<!DOCTYPE svg PUBLIC "-//W3C//DTD SVG 1.1//EN" "http://www.w3.org/Graphics/SVG/1.1/DTD/svg11.dtd">
<svg version="1.1" id="Layer_1" xmlns="http://www.w3.org/2000/svg" xmlns:xlink="http://www.w3.org/1999/xlink" x="0px" y="0px"
	 width="324px" height="11px" viewBox="1.145 0.538 324 11" style="enable-background:new 1.145 0.538 324 11" xml:space="preserve">
<style type="text/css">
	.st0{fill:#FFFFFF;}
</style>
<path class="st0" d="M5.7,10.8L4,7.2H2.8v3.5H0V0.3h4.7c0.6,0,1.2,0.1,1.7,0.2s0.9,0.3,1.3,0.6c0.3,0.2,0.6,0.6,0.8,1s0.3,1,0.3,1.6
	c0,0.8-0.2,1.4-0.5,1.9C7.9,6.1,7.5,6.5,6.9,6.8l2.1,4H5.7z M5.6,3c-0.2-0.2-0.5-0.3-1-0.3H2.8V5h1.7c0.5,0,0.8-0.1,1-0.3
	c0.2-0.2,0.3-0.5,0.3-0.9C5.9,3.4,5.8,3.2,5.6,3z M10.7,10.8V0.3h8v2.4h-5.1v1.4h3.1v2.4h-3.1v1.8h5.3v2.4L10.7,10.8L10.7,10.8z
	 M29.4,7.9c-0.2,0.7-0.6,1.2-1.1,1.6s-1.1,0.7-1.8,0.9c-0.7,0.2-1.5,0.3-2.4,0.3h-3.4V0.3h3.7c0.8,0,1.6,0.1,2.2,0.3
	c0.7,0.2,1.2,0.5,1.7,0.9s0.8,0.9,1.1,1.6c0.3,0.7,0.4,1.5,0.4,2.5C29.7,6.4,29.6,7.3,29.4,7.9z M26.6,4.3c-0.1-0.3-0.2-0.6-0.4-0.9
	C26,3.2,25.8,3,25.5,2.9s-0.7-0.2-1.1-0.2h-0.7v5.5h0.6c0.5,0,0.8,0,1.2-0.1C25.7,8,26,7.9,26.2,7.7c0.2-0.2,0.4-0.5,0.4-0.9
	c0.1-0.4,0.1-0.8,0.1-1.3C26.8,5,26.7,4.6,26.6,4.3z M42.1,10.8V6.6h-3.3v4.1h-3V0.3h3v3.8h3.3V0.3h3v10.5H42.1z M53.9,10.8L53.3,9
	h-3.1l-0.6,1.8h-3.1l3.8-10.5h2.9L57,10.8H53.9z M52.4,5.9c-0.1-0.3-0.2-0.6-0.2-0.9c-0.1-0.2-0.1-0.5-0.2-0.7
	c0-0.1-0.1-0.3-0.1-0.5s-0.1-0.3-0.1-0.5c0,0.2-0.1,0.4-0.1,0.5c0,0.2-0.1,0.4-0.1,0.6c-0.1,0.2-0.1,0.4-0.2,0.7
	c-0.1,0.2-0.1,0.5-0.2,0.9L51,6.7h1.7L52.4,5.9z M62.5,2.8v7.9h-2.9V2.8h-2.9V0.3h8.8v2.5H62.5z M68.9,1.7c-0.1,0.1-0.1,0.2-0.2,0.3
	s-0.2,0.2-0.3,0.2c-0.1,0.1-0.3,0.1-0.4,0.1s-0.3,0-0.4-0.1S67.4,2.1,67.3,2c-0.2,0-0.3-0.1-0.4-0.3c-0.1-0.1-0.1-0.3-0.1-0.4
	s0-0.3,0.1-0.4C67,0.8,67,0.7,67.1,0.6s0.2-0.2,0.3-0.2c0.1-0.1,0.3-0.1,0.4-0.1c0.2,0,0.3,0,0.4,0.1s0.2,0.1,0.3,0.2
	c0.1,0.1,0.2,0.2,0.2,0.3C68.9,1,69,1.2,69,1.3C69,1.5,68.9,1.6,68.9,1.7z M68.7,1c0-0.1-0.1-0.2-0.2-0.3s-0.2-0.1-0.3-0.2
	c-0.1,0-0.2-0.1-0.3-0.1c-0.1,0-0.2,0-0.3,0.1c-0.1,0-0.2,0.1-0.3,0.2c-0.1,0.1-0.1,0.2-0.2,0.3C67,1.1,67,1.2,67,1.3
	c0,0.1,0,0.2,0.1,0.3c0,0.1,0.1,0.2,0.2,0.3C67.4,2,67.5,2,67.6,2.1c0.1,0,0.2,0.1,0.3,0.1c0.1,0,0.2,0,0.3-0.1
	c0.1,0,0.2-0.1,0.3-0.2c0.1-0.1,0.1-0.2,0.2-0.3c0-0.1,0.1-0.2,0.1-0.3S68.8,1.1,68.7,1z M68.3,1.3c0,0.1-0.1,0.1-0.2,0.1l0.2,0.5
	h-0.2l-0.2-0.4h-0.2v0.4h-0.2V0.7H68h0.1c0,0,0.1,0,0.1,0.1l0.1,0.1c0,0,0,0.1,0,0.2C68.4,1.2,68.4,1.2,68.3,1.3z M68.1,1L68.1,1
	h-0.4v0.3H68c0.1,0,0.1,0,0.1,0l0.1-0.1C68.2,1,68.2,1,68.1,1z M72.8,8.1l1.8-0.7c0.5,1,1.3,1.6,2.3,1.6s1.7-0.4,1.7-1.3
	c0-0.9-1-1.2-2.1-1.6C75,5.7,73.2,5.1,73.2,3c0-1.6,1.3-2.9,3.6-2.9c1.9,0,3.1,1.1,3.5,2.4l-1.8,0.6c-0.3-0.6-0.8-1.1-1.8-1.1
	c-0.9,0-1.4,0.4-1.4,1c0,0.7,0.9,0.9,1.9,1.3c1.6,0.5,3.5,1.2,3.5,3.4c0,2-1.7,3.2-3.8,3.2C74.9,11,73.4,9.9,72.8,8.1z M82.2,5.6
	c0-2.6,1.2-5.4,4.6-5.4c3.4,0,4.6,2.8,4.6,5.4c0,2.6-1.2,5.4-4.6,5.4C83.5,11,82.2,8.2,82.2,5.6z M89.4,5.6c0-1.6-0.6-3.5-2.5-3.5
	c-1.9,0-2.5,2-2.5,3.5C84.3,7.1,85,9,86.8,9C88.7,9,89.4,7.1,89.4,5.6z M93.5,0.3h2v8.5h5.1v2h-7.1V0.3z M101.9,6.8V0.3h2v6.5
	c0,1.7,0.8,2.2,2.2,2.2c1.3,0,2.2-0.5,2.2-2.2V0.3h2v6.5c0,3.1-2,4.2-4.2,4.2C104,11,101.9,10,101.9,6.8z M117,10.8h-2V2.3h-3V0.3h8
	v1.9h-3V10.8z M121.8,0.3h2v10.5h-2V0.3z M125.9,5.6c0-2.6,1.2-5.4,4.6-5.4c3.4,0,4.6,2.8,4.6,5.4c0,2.6-1.2,5.4-4.6,5.4
	C127.1,11,125.9,8.2,125.9,5.6z M133,5.6c0-1.6-0.6-3.5-2.5-3.5c-1.9,0-2.5,2-2.5,3.5c0,1.6,0.6,3.5,2.5,3.5
	C132.3,9,133,7.1,133,5.6z M143.7,10.8l-4.2-6.1c-0.1-0.2-0.3-0.5-0.4-0.8c0,0.3,0,0.6,0,0.8v6.1h-2V0.3h1.9l4.1,6
	c0.1,0.2,0.3,0.5,0.4,0.8c0-0.2,0-0.6,0-0.8v-6h2v10.5H143.7z M151.7,0.3h7.2v1.9h-5.1v2.2h3v1.9h-3v2.5h5.5v1.9h-7.5V0.3z
	 M165.2,7.3l-2.2,3.5h-2.4l3.4-5.4l-3.2-5.1h2.4l2,3.2l2-3.2h2.4l-3.2,5.1l3.4,5.4h-2.4L165.2,7.3z M171.5,0.3h4.5
	c2.7,0,3.6,1.7,3.6,3.3c0,1.5-1,3.3-3.6,3.3h-2.5v3.9h-2V0.3z M177.5,3.6c0-0.6-0.3-1.4-1.4-1.4h-2.6V5h2.6
	C177.1,5,177.5,4.3,177.5,3.6z M181.1,0.3h2v8.5h5.1v2h-7.1V0.3z M189.2,5.6c0-2.6,1.2-5.4,4.6-5.4s4.6,2.8,4.6,5.4
	c0,2.6-1.2,5.4-4.6,5.4S189.2,8.2,189.2,5.6z M196.4,5.6c0-1.6-0.6-3.5-2.5-3.5c-1.9,0-2.5,2-2.5,3.5c0,1.6,0.6,3.5,2.5,3.5
	C195.7,9,196.4,7.1,196.4,5.6z M200.5,0.3h4.9c2.6,0,3.5,1.6,3.5,3.3c0,1.2-0.7,2.5-2,3l2,4.2h-2.3l-2-3.9h-2.1v3.9h-2V0.3z
	 M205.4,5c1,0,1.4-0.7,1.4-1.4c0-0.7-0.3-1.4-1.4-1.4h-2.9V5H205.4z M210.9,0.3h7.2v1.9H213v2.2h3v1.9h-3v2.5h5.5v1.9h-7.5V0.3z
	 M220.3,0.3h4.9c2.6,0,3.5,1.6,3.5,3.3c0,1.2-0.7,2.5-2,3l2,4.2h-2.3l-2-3.9h-2.1v3.9h-2V0.3z M225.2,5c1,0,1.4-0.7,1.4-1.4
	c0-0.7-0.3-1.4-1.4-1.4h-2.9V5H225.2z"/>
</svg>
