<?xml version="1.0" encoding="utf-8"?>
<!-- Generator: Adobe Illustrator 22.1.0, SVG Export Plug-In . SVG Version: 6.00 Build 0)  -->
<svg version="1.1" id="Layer_1" xmlns="http://www.w3.org/2000/svg" xmlns:xlink="http://www.w3.org/1999/xlink" x="0px" y="0px"
	 viewBox="0 0 136 136" style="enable-background:new 0 0 136 136;" xml:space="preserve">
<style type="text/css">
	.st0{fill:#FFFFFF;}
</style>
<path class="st0" d="M38.1,62.8C38,63,38,63.3,38.3,63.5c0.1,0,0.2,0.1,0.2,0.1c0.2,0,0.3-0.1,0.4-0.3C53.7,37.5,41.2,13.2,41,13
	c-0.1-0.2-0.4-0.3-0.7-0.2c-0.2,0.1-0.3,0.4-0.2,0.7C40.3,13.6,52.6,37.5,38.1,62.8z M77.1,10c-0.3,0.1-0.4,0.4-0.3,0.7
	c0,0.1,4.7,11.3-2.3,28.6c-0.1,0.3,0,0.5,0.3,0.7c0.1,0,0.1,0,0.2,0c0.2,0,0.4-0.1,0.5-0.3C82.7,22,78,10.8,77.8,10.3
	C77.7,10,77.4,9.9,77.1,10z M125.5,55.3c0.1-0.3,0-0.5-0.3-0.6c-0.5-0.2-12-4-29.8,3.6c-0.3,0.1-0.4,0.4-0.3,0.7
	c0.1,0.2,0.3,0.3,0.5,0.3c0.1,0,0.1,0,0.2,0c17.4-7.5,28.9-3.6,29-3.6C125.1,55.6,125.4,55.5,125.5,55.3z M124.1,97.2
	c-0.2-0.1-25.3-14.4-51.1,0.4c-0.2,0.1-0.3,0.4-0.2,0.7c0.1,0.2,0.3,0.3,0.4,0.3s0.2,0,0.2-0.1c25.3-14.5,49.8-0.5,50-0.4
	c0.2,0.1,0.5,0.1,0.7-0.2C124.4,97.7,124.3,97.4,124.1,97.2z M47,9.2l1.8,0.4c0.1,0,0.2,0,0.3,0c0.3,0,0.6-0.1,0.8-0.2
	c0.3-0.2,0.6-0.6,0.7-0.9L51,6.7c0.1-0.4,0-0.8-0.2-1.1c-0.2-0.3-0.6-0.6-0.9-0.7l-1.8-0.4c-0.4-0.1-0.8,0-1.1,0.2s-0.6,0.6-0.7,0.9
	l-0.4,1.8c-0.1,0.4,0,0.8,0.2,1.1C46.3,8.9,46.6,9.1,47,9.2z M46.9,7.6l0.4-1.8c0-0.1,0.1-0.2,0.2-0.3c0.1-0.1,0.2-0.1,0.3-0.1h0.1
	l1.8,0.4c0.1,0,0.2,0.1,0.3,0.2c0,0.2,0.1,0.3,0,0.5l-0.4,1.8c0,0.1-0.1,0.2-0.2,0.3c-0.1,0.1-0.2,0.1-0.4,0.1l-1.8-0.4
	c-0.1,0-0.2-0.1-0.3-0.2C46.9,7.9,46.8,7.8,46.9,7.6z M59.5,70.7l-1.8-0.4c-0.4-0.1-0.8,0-1.1,0.2s-0.6,0.6-0.7,0.9l-0.4,1.8
	c-0.1,0.4,0,0.8,0.2,1.1c0.2,0.3,0.6,0.6,0.9,0.7l1.8,0.4c0.1,0,0.2,0,0.3,0c0.7,0,1.3-0.5,1.5-1.2l0.4-1.8
	C60.8,71.7,60.3,70.9,59.5,70.7z M59.7,72.3l-0.4,1.8c-0.1,0.3-0.3,0.4-0.6,0.4l-1.8-0.4c-0.1,0-0.2-0.1-0.3-0.2s-0.1-0.2-0.1-0.4
	l0.4-1.8c0-0.1,0.1-0.2,0.2-0.3c0.1-0.1,0.2-0.1,0.3-0.1h0.1l1.8,0.4C59.6,71.8,59.7,72,59.7,72.3z M72.1,74c0.3,0,0.6-0.1,0.8-0.2
	c0.3-0.2,0.6-0.6,0.7-0.9l0.4-1.8c0.1-0.4,0-0.8-0.2-1.1c-0.2-0.3-0.6-0.6-0.9-0.7L71,68.9c-0.8-0.2-1.6,0.3-1.8,1.1l-0.4,1.8
	c-0.1,0.4,0,0.8,0.2,1.1s0.6,0.6,0.9,0.7l1.8,0.4C71.8,74,72,74,72.1,74z M69.9,72.4c-0.1-0.1-0.1-0.2-0.1-0.4l0.4-1.8
	c0.1-0.2,0.3-0.4,0.5-0.4h0.1l1.8,0.4c0.3,0.1,0.4,0.3,0.4,0.6l-0.4,1.8c0,0.1-0.1,0.2-0.2,0.3C72.2,73,72.1,73,72,73l-1.8-0.4
	C70,72.6,69.9,72.5,69.9,72.4z M62.4,64.7c0.1,0,0.2,0,0.3,0c0.7,0,1.3-0.5,1.5-1.2l0.4-1.8c0.2-0.8-0.3-1.6-1.1-1.8l-1.8-0.4
	c-0.8-0.2-1.6,0.3-1.8,1.1l-0.4,1.8c-0.2,0.8,0.3,1.6,1.1,1.8L62.4,64.7L62.4,64.7z M60.4,62.7l0.4-1.8c0.1-0.3,0.3-0.4,0.6-0.4
	l1.8,0.4c0.3,0.1,0.4,0.3,0.4,0.6l-0.4,1.8c-0.1,0.3-0.3,0.4-0.6,0.4l-1.8-0.4C60.5,63.3,60.4,63,60.4,62.7z M86,16.9l1.8,0.4
	c0.1,0,0.2,0,0.3,0c0.7,0,1.3-0.5,1.5-1.2l0.4-1.8c0.2-0.8-0.3-1.6-1.1-1.8L87,12.2c-0.8-0.2-1.6,0.3-1.8,1.1l-0.4,1.8
	C84.6,15.9,85.1,16.7,86,16.9z M85.8,15.3l0.4-1.8c0.1-0.3,0.3-0.4,0.6-0.4l1.8,0.4c0.3,0.1,0.4,0.3,0.4,0.6l-0.4,1.8
	c-0.1,0.3-0.3,0.4-0.6,0.4l-1.8-0.4C85.9,15.9,85.7,15.6,85.8,15.3z M65,16.9l1.8,0.4l0,0c0.1,0,0.2,0,0.3,0c0.7,0,1.3-0.5,1.5-1.2
	l0.4-1.8c0.1-0.4,0-0.8-0.2-1.1s-0.6-0.6-0.9-0.7L66,12.2c-0.4-0.1-0.8,0-1.1,0.2c-0.3,0.2-0.6,0.6-0.7,0.9l-0.4,1.8
	C63.6,15.9,64.1,16.7,65,16.9z M64.8,15.3l0.4-1.8c0.1-0.3,0.3-0.4,0.6-0.4l1.8,0.4c0.1,0,0.2,0.1,0.3,0.2c0.1,0.1,0.1,0.2,0.1,0.4
	l-0.4,1.8c-0.1,0.3-0.3,0.4-0.6,0.4l-1.8-0.4C64.9,15.9,64.7,15.6,64.8,15.3z M115,46.9l1.8,0.4c0.1,0,0.2,0,0.3,0
	c0.7,0,1.3-0.5,1.5-1.2l0.4-1.8c0.2-0.8-0.3-1.6-1.1-1.8l-1.8-0.4c-0.8-0.2-1.6,0.3-1.8,1.1l-0.4,1.8
	C113.6,45.9,114.1,46.7,115,46.9z M114.8,45.3l0.4-1.8c0.1-0.3,0.3-0.4,0.6-0.4l1.8,0.4c0.3,0.1,0.4,0.3,0.4,0.6l-0.4,1.8
	c-0.1,0.3-0.3,0.4-0.6,0.4l-1.8-0.4C114.9,45.9,114.7,45.6,114.8,45.3z M117.8,62.6l-1.8-0.4c-0.8-0.2-1.6,0.3-1.8,1.1l-0.4,1.8
	c-0.2,0.8,0.3,1.6,1.1,1.8l1.8,0.4c0.1,0,0.2,0,0.3,0c0.7,0,1.3-0.5,1.5-1.2l0.4-1.8C119.1,63.6,118.6,62.8,117.8,62.6z M117.9,64.2
	l-0.4,1.8c-0.1,0.3-0.3,0.4-0.6,0.4l-1.8-0.4c-0.3-0.1-0.4-0.3-0.4-0.6l0.4-1.8c0.1-0.3,0.3-0.4,0.6-0.4l1.8,0.4
	C117.8,63.6,118,63.9,117.9,64.2z M117.8,82.6l-1.8-0.4c-0.4-0.1-0.8,0-1.1,0.2c-0.3,0.2-0.6,0.6-0.7,0.9l-0.4,1.8
	c-0.1,0.4,0,0.8,0.2,1.1c0.2,0.3,0.6,0.6,0.9,0.7l1.8,0.4c0.1,0,0.2,0,0.3,0c0.3,0,0.6-0.1,0.8-0.2c0.3-0.2,0.6-0.6,0.7-0.9l0.4-1.8
	C119.1,83.6,118.6,82.8,117.8,82.6z M117.9,84.2l-0.4,1.8c0,0.1-0.1,0.2-0.2,0.3c-0.1,0.1-0.2,0.1-0.4,0.1l-1.8-0.4
	c-0.1,0-0.2-0.1-0.3-0.2c-0.1-0.1-0.1-0.2-0.1-0.4l0.4-1.8c0-0.1,0.1-0.2,0.2-0.3c0.1-0.1,0.2-0.1,0.3-0.1h0.1l1.8,0.4
	C117.8,83.6,118,83.9,117.9,84.2z M127.8,72.6l-1.8-0.4c-0.4-0.1-0.8,0-1.1,0.2c-0.3,0.2-0.6,0.6-0.7,0.9l-0.4,1.8
	c-0.1,0.4,0,0.8,0.2,1.1c0.2,0.3,0.6,0.6,0.9,0.7l1.8,0.4c0.1,0,0.2,0,0.3,0c0.3,0,0.6-0.1,0.8-0.2c0.3-0.2,0.6-0.6,0.7-0.9l0.4-1.8
	C129.1,73.6,128.6,72.8,127.8,72.6z M127.9,74.2l-0.4,1.8c0,0.1-0.1,0.2-0.2,0.3c-0.1,0.1-0.2,0.1-0.4,0.1l-1.8-0.4
	c-0.1,0-0.2-0.1-0.3-0.2c-0.1-0.1-0.1-0.2-0.1-0.4l0.4-1.8c0-0.1,0.1-0.2,0.2-0.3c0.1-0.1,0.2-0.1,0.3-0.1h0.1l1.8,0.4
	C127.8,73.6,128,73.9,127.9,74.2z M127.8,22.6l-1.8-0.4c-0.8-0.2-1.6,0.3-1.8,1.1l-0.4,1.8c-0.2,0.8,0.3,1.6,1.1,1.8l1.8,0.4
	c0.1,0,0.2,0,0.3,0c0.7,0,1.3-0.5,1.5-1.2l0.4-1.8C129.1,23.6,128.6,22.8,127.8,22.6z M127.9,24.2l-0.4,1.8
	c-0.1,0.3-0.3,0.4-0.6,0.4l-1.8-0.4c-0.3-0.1-0.4-0.3-0.4-0.6l0.4-1.8c0.1-0.3,0.3-0.4,0.6-0.4l1.8,0.4
	C127.8,23.6,128,23.9,127.9,24.2z M73.4,5.5l1.8,0.4c0.1,0,0.2,0,0.3,0c0.7,0,1.3-0.5,1.5-1.2l0.4-1.8c0.2-0.8-0.3-1.6-1.1-1.8
	l-1.8-0.4c-0.8-0.2-1.6,0.3-1.8,1.1l-0.4,1.8c-0.1,0.4,0,0.8,0.2,1.1C72.7,5.2,73,5.4,73.4,5.5z M73.2,3.9l0.4-1.8
	c0.1-0.2,0.3-0.4,0.5-0.4h0.1L76,2.1c0.3,0.1,0.4,0.3,0.4,0.6L76,4.5c-0.1,0.3-0.3,0.4-0.6,0.4l-1.8-0.4c-0.1,0-0.2-0.1-0.3-0.2
	C73.2,4.2,73.2,4,73.2,3.9z M35,37.9l1.8,0.4l0,0c0.1,0,0.2,0,0.3,0c0.7,0,1.3-0.5,1.5-1.2l0.4-1.8c0.1-0.4,0-0.8-0.2-1.1
	s-0.6-0.6-0.9-0.7L36,33.2c-0.4-0.1-0.8,0-1.1,0.2s-0.6,0.6-0.7,0.9l-0.4,1.8C33.6,36.9,34.1,37.7,35,37.9z M34.8,36.3l0.4-1.8
	c0.1-0.3,0.3-0.4,0.6-0.4l1.8,0.4c0.1,0,0.2,0.1,0.3,0.2c0.1,0.1,0.1,0.2,0.1,0.4l-0.4,1.8c-0.1,0.3-0.3,0.4-0.6,0.4l-1.8-0.4
	C34.9,36.9,34.7,36.6,34.8,36.3z M107.8,103.6l-1.8-0.4c-0.4-0.1-0.8,0-1.1,0.2c-0.3,0.2-0.6,0.6-0.7,0.9l-0.4,1.8
	c-0.1,0.4,0,0.8,0.2,1.1c0.2,0.3,0.6,0.6,0.9,0.7l1.8,0.4c0.1,0,0.2,0,0.3,0c0.3,0,0.6-0.1,0.8-0.2c0.3-0.2,0.6-0.6,0.7-0.9l0.4-1.8
	C109.1,104.6,108.6,103.8,107.8,103.6z M107.9,105.2l-0.4,1.8c0,0.1-0.1,0.2-0.2,0.3c-0.1,0.1-0.2,0.1-0.4,0.1l-1.8-0.4
	c-0.1,0-0.2-0.1-0.3-0.2c-0.1-0.1-0.1-0.2-0.1-0.4l0.4-1.8c0-0.1,0.1-0.2,0.2-0.3c0.1-0.1,0.2-0.1,0.3-0.1h0.1l1.8,0.4
	C107.8,104.6,108,104.9,107.9,105.2z M135.4,44.3c-0.2-0.3-0.6-0.6-0.9-0.7l-1.8-0.4c-0.4-0.1-0.8,0-1.1,0.2s-0.6,0.6-0.7,0.9
	l-0.4,1.8c-0.1,0.4,0,0.8,0.2,1.1s0.6,0.6,0.9,0.7l1.8,0.4c0.1,0,0.2,0,0.3,0c0.3,0,0.6-0.1,0.8-0.2c0.3-0.2,0.6-0.6,0.7-0.9
	l0.4-1.8C135.6,45.1,135.6,44.7,135.4,44.3z M134.6,45.2l-0.4,1.8c0,0.1-0.1,0.2-0.2,0.3c-0.1,0.1-0.2,0.1-0.4,0.1l-1.8-0.4
	c-0.1,0-0.2-0.1-0.3-0.2c-0.1-0.1-0.1-0.2-0.1-0.4l0.4-1.8c0-0.1,0.1-0.2,0.2-0.3c0.1-0.1,0.2-0.1,0.4-0.1l1.8,0.4
	c0.1,0,0.2,0.1,0.3,0.2C134.6,45,134.6,45.1,134.6,45.2z M54.2,80.7c-0.5-0.5-1.2-0.8-1.9-0.8c-0.5,0-1,0.1-1.4,0.4l-7-7L43,70
	c-0.1-0.5-0.4-0.9-0.7-1.2l-3.9-3.9c-0.5-0.5-1.2-0.8-1.9-0.8c-1,0-2,0.6-2.4,1.5L26.9,80c-0.3,0.6-0.4,1.3-0.2,1.9l0.2,0.9
	l-3.6,7.1c-0.9,0.1-1.8,0.6-2.2,1.5l-9.1,18c-0.3,0.6-0.4,1.3-0.2,1.9l0.2,0.9l-3.6,7.1c-0.9,0.1-1.8,0.6-2.2,1.5L1,131.3
	c-0.4,0.9-0.4,1.8,0.1,2.7c0.5,0.8,1.4,1.3,2.3,1.3c0.4,0,0.8-0.1,1.2-0.3l7.1-3.6c0.9-0.4,1.4-1.3,1.5-2.2l3.6-1.8
	c0.4,0.3,0.9,0.4,1.4,0.4c0.4,0,0.8-0.1,1.2-0.3l12.3-6.2c0.9-0.4,1.4-1.3,1.5-2.2l3.6-1.8c0.4,0.3,0.9,0.4,1.4,0.4
	c0.4,0,0.8-0.1,1.2-0.3l12.3-6.2c0.9-0.4,1.4-1.3,1.5-2.2l3.6-1.8c0.4,0.3,0.9,0.4,1.4,0.4c0.4,0,0.8-0.1,1.2-0.3l10.9-5.5
	c0.8-0.4,1.3-1.1,1.5-2S71.7,98,71,97.4L54.2,80.7z M10.9,129.6l-7.1,3.6c-0.4,0.2-0.7,0-0.9-0.1c-0.2-0.2-0.3-0.5-0.1-0.9L8,121.7
	c0.2-0.4,0.5-0.4,0.7-0.4h0.1c0.1,0,0.5,0.1,0.6,0.5l1.9,6.9C11.4,129.1,11.2,129.5,10.9,129.6z M12.1,128.1l-1.8-6.5
	c-0.1-0.5-0.4-0.8-0.8-1.1l3.7-7.5l3.3,12.5c0,0.1,0.1,0.2,0.1,0.3L12.1,128.1z M30.9,119.6l-12.3,6.2c-0.2,0.1-0.4,0.1-0.6,0
	s-0.4-0.3-0.4-0.5l-3.9-14.5c0-0.2,0-0.4,0.1-0.5l9.1-18.1c0.2-0.4,0.5-0.4,0.7-0.4h0.1c0.1,0,0.5,0.1,0.6,0.5l7.1,26.4
	C31.4,119.1,31.2,119.4,30.9,119.6z M32.1,118.1l-7-26c-0.1-0.5-0.4-0.8-0.8-1.1l3.7-7.5l8.5,31.9c0,0.1,0.1,0.2,0.1,0.3L32.1,118.1
	z M50.9,109.6l-12.3,6.2c-0.2,0.1-0.4,0.1-0.6,0c-0.2-0.1-0.4-0.3-0.4-0.5l-9.1-33.9c0-0.2,0-0.4,0.1-0.5l7.2-14.4
	c0.1-0.2,0.3-0.4,0.5-0.4h0.1c0.2,0,0.4,0.1,0.5,0.2l3.9,3.9c0.1,0.1,0.2,0.2,0.2,0.3l10.2,38.2C51.4,109,51.2,109.4,50.9,109.6z
	 M52.1,108l-8.9-33.3l7.4,7.4c-0.1,0.3-0.1,0.6,0,0.9l6,22.3c0,0.1,0.1,0.2,0.1,0.3L52.1,108z M69.5,100.2l-10.9,5.5
	c-0.2,0.1-0.4,0.1-0.6,0c-0.2-0.1-0.4-0.3-0.4-0.5l-6-22.3l0,0c-0.1-0.4,0.1-0.7,0.3-0.8c0.2-0.1,0.6-0.2,0.9,0.1L69.7,99
	c0.2,0.2,0.2,0.4,0.2,0.6S69.7,100.1,69.5,100.2z M50,44.9L50,44.9c-0.4,0.9-0.3,2,0.4,2.7c-0.9,0-1.8,0.5-2.2,1.2l-0.9,1.5
	l-0.1,0.2l0,0c-0.4,0.8-0.3,1.8,0.2,2.5c-0.8,0.1-1.5,0.5-1.8,1.2l-0.8,1.4c-0.3,0.6-0.4,1.3-0.1,1.8c0.3,0.6,0.9,0.9,1.5,1l8.8,0.9
	c0.1,0,0.1,0,0.2,0c0.4,0,0.9-0.1,1.3-0.4c0.1-0.1,0.2-0.1,0.2-0.2c0.2-0.2,0.4-0.4,0.6-0.7l0.8-1.4c0.1-0.2,0.2-0.5,0.3-0.7
	c0.1-0.7,0-1.3-0.4-1.8l0.6,0.1c0.1,0,0.1,0,0.2,0c0.2,0,0.3,0,0.5-0.1c0.6-0.1,1.2-0.4,1.5-1l0.6-1l0.4-0.7l0.1-0.2v-0.1
	c0.3-0.9,0.1-1.8-0.5-2.5l1,0.1c0.1,0,0.1,0,0.2,0c0.2,0,0.3,0,0.5-0.1c0.6-0.1,1.2-0.4,1.5-1l0.1-0.2l0.9-1.6l0.1-0.1l0,0l0,0
	c0-0.1,0.1-0.2,0.1-0.2c0.4-0.9,0.2-2.1-0.6-2.7l1.2,0.1c0.1,0,0.1,0,0.2,0c0.2,0,0.4,0,0.5-0.1c0.7-0.1,1.2-0.5,1.6-1l0.2-0.3
	l1.1-1.9l0.1-0.2v-0.1c0.4-1,0.1-2.1-0.6-2.8L60.7,29c-0.4-0.3-0.9-0.5-1.4-0.5c-0.8,0-1.5,0.4-1.9,1.1l-1.3,2.2
	c-0.6,1-0.4,2.4,0.5,3.2l0.7,0.6l-0.8-0.1c-0.1,0-0.1,0-0.2,0c-0.3,0-0.6,0-0.8,0.1c-0.6,0.1-1.1,0.5-1.5,1l0,0l0,0l-0.1,0.2
	l-1.1,1.9c-0.4,0.6-0.4,1.3-0.1,1.9c0.1,0.4,0.4,0.7,0.7,1l0.3,0.2h-0.3c-0.1,0-0.1,0-0.2,0c-0.9,0-1.9,0.5-2.3,1.3l-1,1.7L50,44.9z
	 M56.4,55.4c0,0,0.1,0.2,0,0.3l-1,1.6l0,0L49,51.8c0,0-0.1-0.2,0-0.3l1-1.6L56.4,55.4z M46.1,56.4l0.8-1.4c0.1-0.3,0.5-0.4,0.8-0.4
	c0,0,0,0,0.1,0l3.2,0.3l3.4,2.9l-8-0.8C46,56.9,45.9,56.6,46.1,56.4z M51.8,46.2c-0.1-0.1-0.1-0.3,0-0.4l1-1.7
	c0-0.1,0.1-0.1,0.1-0.1l7.1,6.1c0.1,0.1,0.1,0.2,0,0.4l-1,1.7l-0.1,0.1c0,0,0,0-0.1,0L51.8,46.2z M55,40c-0.1-0.1-0.2-0.3,0-0.5
	l1.1-1.9c0-0.1,0.1-0.1,0.2-0.1l7.9,6.7c0.1,0.1,0.1,0.3,0,0.5l-1.1,1.9c0,0.1-0.1,0.1-0.1,0.1h-0.1L55,40z M58.3,33.3
	c-0.1-0.1-0.2-0.4-0.1-0.6l1.3-2.1c0.1-0.1,0.1-0.1,0.2-0.2h0.1l8.8,7.5c0.1,0.1,0.2,0.4,0,0.6l-1.3,2.1c-0.1,0.1-0.1,0.1-0.2,0.1
	c0,0-0.1,0-0.2,0L58.3,33.3z M61.4,37.3l4.6,3.9l-4.3-0.4l-4.6-3.9L61.4,37.3z M57.7,43.6l4.2,3.5l-4.1-0.4l-4.1-3.5c0,0,0,0-0.1,0
	L57.7,43.6z M54.2,49.5l3.8,3.2l-3.6-0.4l-3.7-3.1c0,0-0.1,0-0.1-0.1l0,0L54.2,49.5z M101.9,80.7c0.3,0.1,0.6,0.2,0.9,0.2
	c0.4,0,0.8-0.1,1.2-0.3l2.6-1.6l0,0l0,0c0.1-0.1,0.2-0.1,0.2-0.2c0.9-0.7,1.3-2,0.9-3l-5.1-13c-0.3-0.9-1.2-1.5-2.2-1.5
	c-0.4,0-0.9,0.1-1.3,0.3l-2.6,1.6c-1.1,0.6-1.6,2.1-1.2,3.3l0.8,2l-1.7-1.1c-0.3-0.2-0.7-0.3-1.1-0.4c-0.2-0.1-0.5-0.1-0.7-0.1
	c-0.4,0-0.8,0.1-1.2,0.3h-0.1l0,0l-0.2,0.1L89,68.6c-0.7,0.4-1,1.1-1.1,1.7c-0.1,0.5,0,0.9,0.1,1.3l0.5,1.3l-1.1-0.7
	c-0.5-0.3-1-0.5-1.6-0.5c-0.5,0-1,0.1-1.5,0.4l-2.1,1.2L82,73.4l0,0c-0.9,0.6-1.3,1.9-0.9,2.9l0.3,0.8l-0.6-0.4
	c-0.4-0.3-1-0.4-1.5-0.4s-1,0.1-1.4,0.4L76,77.8L75.9,78l0,0c-0.9,0.6-1.4,1.8-1,2.8l0.1,0.3L74.9,81c-0.4-0.3-0.9-0.4-1.5-0.4
	c-0.5,0-1,0.1-1.3,0.4l-1.7,1c-0.6,0.4-1,1-1,1.6c0,0.7,0.3,1.3,0.9,1.6l8.9,6c0.4,0.3,0.8,0.4,1.3,0.4c0.1,0,0.2,0,0.2,0
	c0.1,0,0.3,0,0.3,0c0.3-0.1,0.6-0.2,0.9-0.3l1.7-1c0.2-0.2,0.4-0.3,0.6-0.5c0.6-0.7,0.8-1.6,0.4-2.4L84.4,87l1.4,0.9
	c0.2,0.1,0.4,0.2,0.7,0.3c0.3,0.1,0.5,0.1,0.8,0.1c0.4,0,0.8-0.1,1.1-0.3l0.3-0.2l0.2-0.1l1.7-1l0,0l0,0c0.1-0.1,0.2-0.1,0.2-0.2
	c0.8-0.7,1.2-1.8,0.8-2.8L91.4,83l1.9,1.3c0.2,0.1,0.5,0.3,0.7,0.3c0.3,0.1,0.5,0.1,0.8,0.1c0.4,0,0.8-0.1,1.2-0.3l0.3-0.2l1.1-0.6
	l1-0.6l0,0l0,0c0.1-0.1,0.2-0.1,0.2-0.2c0.9-0.7,1.3-1.9,0.9-2.9L99.1,79l2,1.4C101.4,80.5,101.6,80.6,101.9,80.7z M97.3,65.7
	c-0.1-0.2,0-0.7,0.3-0.8l2.6-1.5c0.1-0.1,0.3-0.1,0.4-0.1s0.1,0.1,0.2,0.2l5.1,13c0.1,0.3-0.1,0.6-0.4,0.8l-2.6,1.5
	c-0.1,0.1-0.3,0.1-0.4,0c-0.1,0-0.2-0.1-0.2-0.2L97.3,65.7z M97.6,80.6c0.1,0.2,0,0.5-0.3,0.7L95,82.7c-0.1,0.1-0.2,0.1-0.3,0
	c0,0-0.1-0.1-0.2-0.2L90,70.9c-0.1-0.2,0-0.5,0.3-0.7l2.3-1.4c0.1-0.1,0.2-0.1,0.3,0c0.1,0,0.1,0.1,0.1,0.1L97.6,80.6z M89.8,84.5
	c0.1,0.1,0,0.4-0.3,0.5l-2.1,1.2c-0.1,0.1-0.2,0-0.2,0s-0.1,0-0.1-0.1L83,75.6c-0.1-0.2,0-0.4,0.2-0.6l2.1-1.2c0.1,0,0.2-0.1,0.2,0
	c0,0,0.1,0,0.1,0.1L89.8,84.5z M82.8,88c0,0.1,0,0.3-0.2,0.4l-1.9,1.1c-0.1,0-0.1,0-0.2,0c0,0-0.1,0-0.1-0.1L76.7,80
	c0-0.1,0-0.3,0.2-0.4l1.9-1.1c0.1,0,0.1,0,0.2,0L82.8,88z M71.2,84c-0.3-0.2-0.3-0.5,0-0.7l1.7-1c0.1-0.1,0.3-0.1,0.5-0.1
	s0.5,0.1,0.6,0.2l3.4,2.3l2,5L71.2,84z M82.1,83.5L80,78.2c0-0.1-0.1-0.1-0.1-0.2c0.1,0,0.1,0,0.2,0.1l3.8,2.6l2.2,5.6L82.1,83.5z
	 M89,79.5l-2.3-5.9c0-0.1-0.1-0.1-0.1-0.2c0.1,0,0.1,0,0.2,0.1l4.3,2.9l2.4,6.2L89,79.5z M96.7,75.6L94,68.7l4.6,3.1l2.7,6.9
	L96.7,75.6z M81.7,44.6l-2.2-0.8c-0.3-0.1-0.6-0.2-1-0.2c-0.9,0-1.7,0.3-2.3,0.9l-2,2L74,46.7l0,0c-0.9,0.9-1,2.4-0.3,3.4l1.1,1.5
	L73.3,51c-0.3-0.1-0.6-0.1-0.9-0.1c-0.8,0-1.6,0.3-2.2,0.9l-1.8,1.8c-0.5,0.6-0.7,1.3-0.6,2c0.2,0.7,0.7,1.2,1.4,1.5l13.1,4.7
	c0.3,0.1,0.5,0.1,0.8,0.1s0.6-0.1,1-0.2c0.1,0,0.2-0.1,0.3-0.1c0.3-0.2,0.6-0.4,0.9-0.6l1.8-1.8c0.2-0.2,0.4-0.5,0.5-0.7
	c0.4-0.9,0.4-1.9-0.2-2.7L86.2,54l3.4,1.2c0.3,0.1,0.6,0.1,0.8,0.1c0.1,0,0.2,0,0.3,0c0.6,0,1.3-0.2,1.7-0.7l0.3-0.3l2-2l0.2-0.2
	L95,52c0.7-1,0.8-2.3,0.1-3.2l-1.5-2.1l4.1,1.5c0.3,0.1,0.6,0.1,0.9,0.1c0.1,0,0.2,0,0.3,0c0.7,0,1.3-0.3,1.8-0.7l0.3-0.3l1.7-1.7
	l0.5-0.5l0,0l0,0c0.1-0.2,0.3-0.3,0.4-0.5c0.6-1,0.6-2.3,0-3.1l-1.6-2.2l4.4,1.6c0.3,0.1,0.6,0.2,0.9,0.2c0.1,0,0.2,0,0.3,0
	c0.7,0,1.4-0.3,1.9-0.8l0.3-0.3l2.5-2.5c0.2-0.2,0.3-0.4,0.4-0.6c0.7-1.1,0.6-2.4,0-3.3l-10.6-14.7c-0.5-0.7-1.2-1.1-2.1-1.1
	c-0.7,0-1.4,0.3-1.9,0.8l-2.8,2.8c-1.1,1-1.2,2.8-0.4,3.9l2.4,3.4l-3.8-1.3c-0.3-0.1-0.7-0.2-1-0.2c-0.1,0-0.2,0-0.3,0
	c-0.1,0-0.1,0-0.2,0c-0.7,0-1.3,0.3-1.8,0.7L90.1,28l0,0L90,28.3l-2.5,2.5c-0.6,0.7-0.8,1.5-0.6,2.3c0.1,0.5,0.2,0.9,0.5,1.3
	l1.9,2.7l-3-1c-0.3-0.1-0.7-0.2-1-0.2c-0.9,0-1.8,0.4-2.4,1l-2.2,2.2l-0.2,0.2l0,0c-0.9,0.9-1,2.4-0.2,3.5L81.7,44.6z M93.5,50.2
	c0.2,0.2,0.1,0.7-0.2,0.9l-2.2,2.2c-0.1,0.1-0.2,0.2-0.4,0.1c-0.1,0-0.2-0.1-0.3-0.2l-8.5-11.9c-0.2-0.2-0.2-0.7,0.1-1l2.2-2.2
	c0.1-0.1,0.3-0.2,0.4-0.2s0.2,0.1,0.2,0.1L93.5,50.2z M85.8,56.9c0.1,0.2,0.1,0.6-0.1,0.8l-2,2c-0.1,0.1-0.2,0.1-0.3,0.1
	c-0.1,0-0.2,0-0.2-0.1L75.5,49c-0.1-0.2-0.1-0.6,0.1-0.8l2-2c0.1-0.1,0.2-0.1,0.3-0.1c0.1,0,0.1,0,0.2,0.1L85.8,56.9z M69.5,54.6
	l1.8-1.8c0.2-0.3,0.7-0.4,1.1-0.4c0.2,0,0.3,0,0.4,0.1l5.2,1.8l4.1,5.7l-12.3-4.4C69.2,55.4,69.1,55,69.5,54.6z M82.9,51.2l-4.1-5.6
	c-0.2-0.2-0.4-0.4-0.7-0.4c0.1,0,0.2,0,0.3,0c0.2,0,0.3,0,0.5,0.1l5.8,2l4.5,6.3L82.9,51.2z M89,33.2c-0.2-0.3-0.2-0.8,0.1-1.2
	l2.5-2.5c0.1-0.1,0.3-0.2,0.5-0.2c0.1,0,0.2,0.1,0.3,0.2l9.6,13.3c0.2,0.3,0.1,0.8-0.2,1.1l-2.5,2.5c-0.1,0.1-0.3,0.2-0.5,0.2
	s-0.3-0.1-0.4-0.2L89,33.2z M96.6,24.3c-0.2-0.3-0.2-1,0.2-1.4l2.8-2.8c0.2-0.2,0.4-0.3,0.6-0.2c0.2,0,0.3,0.1,0.4,0.2l10.6,14.7
	c0.3,0.3,0.2,1-0.2,1.3l-2.8,2.8c-0.2,0.2-0.4,0.2-0.6,0.2s-0.3-0.1-0.4-0.2L96.6,24.3z M100.4,31.4l5.6,7.8l-7.4-2.6L93.2,29
	c0-0.1-0.1-0.1-0.1-0.1l0,0L100.4,31.4z M85.8,37.3l6.5,2.3l5,7l-7.1-2.5l-4.6-6.4c-0.1-0.2-0.3-0.3-0.6-0.4c0.1,0,0.1,0,0.2,0
	C85.5,37.2,85.7,37.2,85.8,37.3z"/>
</svg>
