<?xml version="1.0" encoding="UTF-8"?>
<svg width="24px" height="27px" viewBox="0 0 24 27" version="1.1" xmlns="http://www.w3.org/2000/svg" xmlns:xlink="http://www.w3.org/1999/xlink">
    <title>Group</title>
    <g id="Page-1" stroke="none" stroke-width="1" fill="none" fill-rule="evenodd">
        <g id="Artboard-Copy" transform="translate(-3.000000, -2.000000)" fill-rule="nonzero">
            <g id="Group" transform="translate(3.000000, 2.000000)">
                <g id="Icon-Red_Hat-People_and_Audiences-User-A-Black-RGB-Admin" fill="#000000">
                    <path d="M15.4,11.75 C17.7736116,10.2385341 18.8644563,7.34159545 18.0772991,4.63993947 C17.2901419,1.9382835 14.8139939,0.0806273777 12,0.0806273777 C9.18600615,0.0806273777 6.70985807,1.9382835 5.9227009,4.63993947 C5.13554373,7.34159545 6.22638835,10.2385341 8.6,11.75 C3.55106278,13.2594142 0.0887057188,17.900273 0.08,23.17 C0.0853858123,23.5819621 0.418037936,23.9146142 0.83,23.92 L23.17,23.92 C23.5819621,23.9146142 23.9146142,23.5819621 23.92,23.17 C23.9112943,17.900273 20.4489372,13.2594142 15.4,11.75 Z M7.17,6.42 C7.17,3.75246466 9.33246466,1.59 12,1.59 C14.6675353,1.59 16.83,3.75246466 16.83,6.42 C16.83,9.08753534 14.6675353,11.25 12,11.25 C9.3347466,11.2444989 7.17550106,9.0852534 7.17,6.42 L7.17,6.42 Z M1.61,22.42 C2.02313452,16.987367 6.55168085,12.7901266 12,12.7901266 C17.4483191,12.7901266 21.9768655,16.987367 22.39,22.42 L1.61,22.42 Z" id="Shape"></path>
                </g>
                <g id="Icon-Red_Hat-Hardware-Laptop-B-Red-RGB" transform="translate(1.500000, 13.000000)" fill="#EE0000">
                    <path d="M2.66666667,11.8466667 L18.6666667,11.8466667 C18.941308,11.8430761 19.1630761,11.621308 19.1666667,11.3466667 L19.1666667,0.666666667 C19.1594395,0.395744938 18.9376848,0.17995427 18.6666667,0.17995427 L2.66666667,0.17995427 C2.53351123,0.178188109 2.40527882,0.230284494 2.31111499,0.324448322 C2.21695116,0.418612149 2.16485478,0.546844565 2.16666667,0.68 L2.16666667,11.3333333 C2.16306796,11.4682364 2.21415338,11.5988658 2.30831445,11.6955379 C2.40247552,11.7922099 2.53171561,11.8466667 2.66666667,11.8466667 Z M11.1666667,1.33333333 C11.1651307,1.46560942 11.1125893,1.5921863 11.02,1.68666667 C10.9263218,1.78046166 10.7992302,1.83321663 10.6666667,1.83333566 C10.6001467,1.83354048 10.5343099,1.81991906 10.4733333,1.79333333 C10.4138324,1.76803407 10.3595715,1.73186011 10.3133333,1.68666667 C10.2657644,1.63978459 10.2293145,1.58283163 10.2066667,1.52 C10.1807938,1.46114027 10.1671837,1.39762646 10.1666667,1.33333333 C10.1674817,1.2762057 10.1787802,1.21971334 10.2,1.16666667 C10.2231495,1.09666254 10.2619028,1.03283355 10.3133333,0.98 C10.3593038,0.932775027 10.4135309,0.894364196 10.4733333,0.866666667 C10.5980284,0.820167897 10.7353049,0.820167897 10.86,0.866666667 C10.9198024,0.894364196 10.9740295,0.932775027 11.02,0.98 C11.0714305,1.03283355 11.1101838,1.09666254 11.1333333,1.16666667 C11.1545532,1.21971334 11.1658516,1.2762057 11.1666667,1.33333333 L11.1666667,1.33333333 Z" id="Shape"></path>
                    <path d="M20.6666667,12.8533333 L0.666666667,12.8533333 C0.390524292,12.8533333 0.166666667,13.077191 0.166666667,13.3533333 C0.166666667,13.6294757 0.390524292,13.8533333 0.666666667,13.8533333 L20.6666667,13.8533333 C20.942809,13.8533333 21.1666667,13.6294757 21.1666667,13.3533333 C21.1666667,13.077191 20.942809,12.8533333 20.6666667,12.8533333 L20.6666667,12.8533333 Z" id="Path"></path>
                </g>
                <g id="Icon-Red_Hat-Software_and_technologies-Secured-B-White-RGB" transform="translate(9.200000, 15.700000)" fill="#FFFFFF">
                    <path d="M5.59125,0.679583333 L2.96625,0.0525 C2.93377992,0.0437015778 2.89955342,0.0437015778 2.86708333,0.0525 L0.242083333,0.679583333 C0.143670243,0.703567748 0.0740346119,0.791212594 0.0729166667,0.8925 L0.0729166667,4.29041667 C0.169039615,5.7903667 1.41363981,6.95776084 2.91666667,6.95776084 C4.41969352,6.95776084 5.66429372,5.7903667 5.76041667,4.29041667 L5.76041667,0.8925 C5.7603517,0.790841761 5.69026234,0.702625851 5.59125,0.679583333 Z" id="Path"></path>
                </g>
            </g>
        </g>
    </g>
</svg>