<?xml version="1.0" encoding="utf-8"?>
<!-- Generator: Adobe Illustrator 23.0.3, SVG Export Plug-In . SVG Version: 6.00 Build 0)  -->
<svg version="1.1" id="Layer_1" xmlns="http://www.w3.org/2000/svg" xmlns:xlink="http://www.w3.org/1999/xlink" x="0px" y="0px"
	 viewBox="0 0 180 180" style="enable-background:new 0 0 180 180;" xml:space="preserve">
<style type="text/css">
	.st0{fill:#FFFFFF;}
</style>
<path class="st0" d="M90,98.1c-2.4,0-4.5,2.1-4.5,4.5c0,2.5,2,4.5,4.5,4.5c2.5,0,4.5-2,4.5-4.5C94.4,100.1,92.4,98.1,90,98.1z
	 M90,105.5c-1.6,0-2.9-1.3-2.9-2.9c0-1.6,1.3-2.9,2.9-2.9c1.6,0,2.9,1.3,2.9,2.9C92.9,104.2,91.6,105.5,90,105.5z M87.2,94
	c0.1,0.4,0.4,0.6,0.8,0.6h4c0.4,0,0.7-0.3,0.8-0.6l1.2-6.8c0,0,0-0.1,0-0.1V72.6c0-0.4-0.3-0.8-0.8-0.8h-6.5c-0.4,0-0.8,0.3-0.8,0.8
	V87c0,0,0,0.1,0,0.1L87.2,94z M87.5,73.4h4.9V87l-1.1,6.1h-2.7L87.5,87V73.4z M90,61.9c15.5,0,28.1,12.6,28.1,28.1
	s-12.6,28.1-28.1,28.1S61.9,105.5,61.9,90S74.5,61.9,90,61.9 M90,59.4c-16.9,0-30.6,13.7-30.6,30.6s13.7,30.6,30.6,30.6
	s30.6-13.7,30.6-30.6S106.9,59.4,90,59.4L90,59.4z"/>
</svg>
