<?xml version="1.0" encoding="utf-8"?>
<!-- Generator: Adobe Illustrator 23.0.4, SVG Export Plug-In . SVG Version: 6.00 Build 0)  -->
<svg version="1.1" id="Layer_1" xmlns="http://www.w3.org/2000/svg" xmlns:xlink="http://www.w3.org/1999/xlink" x="0px" y="0px"
	 viewBox="0 0 200 200" style="enable-background:new 0 0 200 200;" xml:space="preserve">
<style type="text/css">
	.st0{fill:#FFFFFF;}
</style>
<path class="st0" d="M100,126.5c-7.8,0-14.7,6.9-14.7,14.7c0,8.2,6.5,14.7,14.7,14.7s14.7-6.5,14.7-14.7
	C114.4,133,107.8,126.5,100,126.5z M100,150.7c-5.2,0-9.5-4.2-9.5-9.5s4.2-9.5,9.5-9.5s9.5,4.2,9.5,9.5S105.2,150.7,100,150.7z
	 M90.8,113.1c0.3,1.3,1.3,2,2.6,2h13.1c1.3,0,2.3-1,2.6-2l3.9-22.2v-0.3V43.1c0-1.3-1-2.6-2.6-2.6H89.2c-1.3,0-2.6,1-2.6,2.6v47.1
	v0.3L90.8,113.1z M91.8,45.8h16v44.4l-3.6,19.9h-8.8l-3.6-19.9V45.8z M100,8.2c50.7,0,91.8,41.2,91.8,91.8s-41.2,91.8-91.8,91.8
	S8.2,150.7,8.2,100S49.3,8.2,100,8.2 M100,0C44.8,0,0,44.8,0,100s44.8,100,100,100s100-44.8,100-100S155.2,0,100,0L100,0z"/>
</svg>
