<svg width="150px" height="30px" xmlns="http://www.w3.org/2000/svg" viewBox="0 0 1202 244">
  <defs>
    <style>.a{fill:#fff;}.b{fill:#e00;}</style>
  </defs>
  <title>Logo-Red_Hat-Managed_Integration-A-Reverse-RGB</title>
  <path class="a" d="M238.84,160.26v59.28H228.65V146.73h14.56l22.88,46.49,22.78-46.49h14.56v72.81h-10.3V160.15L266,214.34Z" />
  <path class="a" d="M313.2,204.35c0-10.61,9.05-16.12,21.43-16.12a36.59,36.59,0,0,1,14.45,2.91v-5.61c0-7.49-4.47-11.23-12.89-11.23-5.1,0-10.3,1.56-16.43,4.47l-3.85-7.8c7.49-3.54,14.35-5.41,21.73-5.41,13.63,0,21.64,6.66,21.64,18.93v35h-10.2V215c-4.57,3.75-10,5.51-16.43,5.51C321.11,220.47,313.2,213.82,313.2,204.35ZM335,212.78a20.38,20.38,0,0,0,14-5v-9.26a27.73,27.73,0,0,0-13.62-3.12c-7.28,0-12.27,3.22-12.27,8.73C323.19,209.35,328.08,212.78,335,212.78Z" />
  <path class="a" d="M371.23,166.6h10.4v5.3a21.64,21.64,0,0,1,15.92-6.34c12.17,0,20.59,8.53,20.59,20.7v33.28h-10.3V188c0-8.21-5-13.41-13.2-13.41a14.92,14.92,0,0,0-13,6.86v38.07h-10.4Z" />
  <path class="a" d="M427.6,204.35c0-10.61,9-16.12,21.43-16.12a36.62,36.62,0,0,1,14.45,2.91v-5.61c0-7.49-4.47-11.23-12.89-11.23-5.1,0-10.3,1.56-16.44,4.47l-3.84-7.8c7.48-3.54,14.35-5.41,21.73-5.41,13.63,0,21.63,6.66,21.63,18.93v35H463.48V215c-4.57,3.75-10,5.51-16.43,5.51C435.5,220.47,427.6,213.82,427.6,204.35Zm21.84,8.43a20.38,20.38,0,0,0,14-5v-9.26a27.75,27.75,0,0,0-13.62-3.12c-7.28,0-12.28,3.22-12.28,8.73C437.58,209.35,442.47,212.78,449.44,212.78Z" />
  <path class="a" d="M483.34,192.81a26.71,26.71,0,0,1,26.84-27.15,25.56,25.56,0,0,1,15.7,5.31V166.6h10.3V220c0,13.94-8.74,21.43-24.24,21.43a44.06,44.06,0,0,1-21.32-5.2l4.06-8.11c6,3.12,11.34,4.57,16.95,4.57,9.26,0,14.15-4.26,14.15-12.58v-5.72A24.67,24.67,0,0,1,510,220C495,220,483.34,208,483.34,192.81Zm27.88,18.1a19.1,19.1,0,0,0,14.56-6.14V180.85a19.09,19.09,0,0,0-14.56-6.14c-10,0-17.68,7.91-17.68,18.1S501.23,210.91,511.22,210.91Z" />
  <path class="a" d="M572.47,165.77c14.56,0,25.59,12.06,25.59,27.66v3H556.25a17.84,17.84,0,0,0,17.89,15.18A20.55,20.55,0,0,0,587.55,207l6.66,6.56a31.25,31.25,0,0,1-20.49,7c-15.6,0-27.77-12-27.77-27.45C546,177.83,557.5,165.77,572.47,165.77Zm-16.12,22.88h31.41c-1.46-8.11-7.8-14.15-15.5-14.15C564.15,174.5,557.91,180.33,556.35,188.65Z" />
  <path class="a" d="M648.7,214.55a25,25,0,0,1-16.22,5.82c-15.08,0-26.73-12.17-26.73-27.35s11.65-27.25,26.94-27.25A26.5,26.5,0,0,1,648.6,171V146.73l10.4-2.28v75.09H648.7Zm-14.77-3.23A19,19,0,0,0,648.6,205V181a19.8,19.8,0,0,0-14.67-6.24c-10.29,0-18,7.91-18,18.2C615.94,203.42,623.85,211.32,633.93,211.32Z" />
  <path class="a" d="M694.15,146.73h10.92v72.81H694.15Z" />
  <path class="a" d="M718.59,166.6H729v5.3a21.62,21.62,0,0,1,15.91-6.34c12.17,0,20.59,8.53,20.59,20.7v33.28H755.2V188c0-8.21-5-13.41-13.21-13.41a14.89,14.89,0,0,0-13,6.86v38.07h-10.4Z" />
  <path class="a" d="M782.44,175.34H771.21V166.6h11.23V153.08l10.3-2.5v16h15.6v8.74h-15.6V204c0,5.41,2.18,7.39,7.8,7.39a20.18,20.18,0,0,0,7.59-1.25v8.73a35.44,35.44,0,0,1-9.88,1.56c-10.29,0-15.81-4.88-15.81-14Z" />
  <path class="a" d="M839,165.77c14.56,0,25.58,12.06,25.58,27.66v3H822.8a17.84,17.84,0,0,0,17.88,15.18A20.56,20.56,0,0,0,854.1,207l6.66,6.56a31.25,31.25,0,0,1-20.49,7c-15.6,0-27.77-12-27.77-27.45C812.5,177.83,824,165.77,839,165.77ZM822.9,188.65h31.41c-1.46-8.11-7.8-14.15-15.5-14.15C830.7,174.5,824.46,180.33,822.9,188.65Z" />
  <path class="a" d="M872.3,192.81c0-15.19,11.75-27.15,26.83-27.15A25.59,25.59,0,0,1,914.84,171V166.6h10.29V220c0,13.94-8.73,21.43-24.23,21.43a44,44,0,0,1-21.32-5.2l4.06-8.11c6,3.12,11.33,4.57,17,4.57,9.25,0,14.14-4.26,14.14-12.58v-5.72A24.67,24.67,0,0,1,898.92,220C884,220,872.3,208,872.3,192.81Zm27.87,18.1a19.09,19.09,0,0,0,14.56-6.14V180.85a19.09,19.09,0,0,0-14.56-6.14c-10,0-17.68,7.91-17.68,18.1S890.19,210.91,900.17,210.91Z" />
  <path class="a" d="M937.19,166.6h10.4v6.55a17,17,0,0,1,14.46-7.69,15.17,15.17,0,0,1,5.41.83v9.36a18.36,18.36,0,0,0-6.24-1.15c-5.51,0-10.71,2.71-13.63,9.57v35.47h-10.4Z" />
  <path class="a" d="M971.1,204.35c0-10.61,9-16.12,21.42-16.12a36.67,36.67,0,0,1,14.46,2.91v-5.61c0-7.49-4.47-11.23-12.9-11.23-5.09,0-10.29,1.56-16.43,4.47L973.8,171c7.49-3.54,14.36-5.41,21.74-5.41,13.62,0,21.63,6.66,21.63,18.93v35H1007V215c-4.58,3.75-10,5.51-16.43,5.51C979,220.47,971.1,213.82,971.1,204.35Zm21.84,8.43a20.38,20.38,0,0,0,14-5v-9.26a27.79,27.79,0,0,0-13.63-3.12c-7.27,0-12.27,3.22-12.27,8.73C981.08,209.35,986,212.78,992.94,212.78Z" />
  <path class="a" d="M1034,175.34h-11.23V166.6H1034V153.08l10.29-2.5v16h15.61v8.74h-15.61V204c0,5.41,2.19,7.39,7.8,7.39a20.23,20.23,0,0,0,7.6-1.25v8.73a35.56,35.56,0,0,1-9.88,1.56c-10.3,0-15.81-4.88-15.81-14Z" />
  <path class="a" d="M1066.26,151.62a6.49,6.49,0,0,1,6.45-6.45,6.45,6.45,0,0,1,0,12.9A6.48,6.48,0,0,1,1066.26,151.62Zm11.65,67.92H1067.5V166.6h10.41Z" />
  <path class="a" d="M1115.24,165.56A27.51,27.51,0,1,1,1087.68,193,27.17,27.17,0,0,1,1115.24,165.56Zm0,9.15c-9.67,0-17.37,8-17.37,18.31s7.59,18.41,17.37,18.41,17.37-8.12,17.37-18.41S1124.91,174.71,1115.24,174.71Z" />
  <path class="a" d="M1152.47,166.6h10.4v5.3a21.64,21.64,0,0,1,15.91-6.34c12.17,0,20.6,8.53,20.6,20.7v33.28h-10.3V188c0-8.21-5-13.41-13.21-13.41a14.91,14.91,0,0,0-13,6.86v38.07h-10.4Z" />
  <path class="b" d="M129,85c12.51,0,30.61-2.58,30.61-17.46a14,14,0,0,0-.31-3.42l-7.45-32.36c-1.72-7.12-3.23-10.35-15.73-16.6C126.39,10.19,105.26,2,99,2c-5.82,0-7.55,7.54-14.45,7.54-6.68,0-11.64-5.6-17.89-5.6-6,0-9.91,4.09-12.93,12.5,0,0-8.41,23.72-9.49,27.16A6.43,6.43,0,0,0,44,45.54C44,54.76,80.33,85,129,85m32.55-11.42c1.73,8.19,1.73,9.05,1.73,10.13,0,14-15.74,21.77-36.43,21.77C80,105.47,39.08,78.1,39.08,60a18.45,18.45,0,0,1,1.51-7.33C23.77,53.52,2,56.54,2,75.72,2,107.2,76.59,146,135.65,146c45.28,0,56.7-20.48,56.7-36.65,0-12.72-11-27.16-30.83-35.78" />
  <path d="M161.52,73.57c1.73,8.19,1.73,9.05,1.73,10.13,0,14-15.74,21.77-36.43,21.77C80,105.47,39.08,78.1,39.08,60a18.45,18.45,0,0,1,1.51-7.33l3.66-9.06A6.43,6.43,0,0,0,44,45.54C44,54.76,80.33,85,129,85c12.51,0,30.61-2.58,30.61-17.46a14,14,0,0,0-.31-3.42Z" />
  <path class="a" d="M581.24,94.3c0,11.89,7.15,17.67,20.19,17.67a52.11,52.11,0,0,0,11.89-1.68V96.51a24.84,24.84,0,0,1-7.68,1.16c-5.37,0-7.36-1.68-7.36-6.73V69.8h15.56V55.6H598.28v-18l-17,3.68V55.6H570V69.8h11.25Zm-53,.32c0-3.68,3.69-5.47,9.26-5.47a43.12,43.12,0,0,1,10.1,1.26v7.15A21.51,21.51,0,0,1,537,100.19c-5.46,0-8.73-2.1-8.73-5.57m5.2,17.56c6,0,10.84-1.26,15.36-4.31v3.37h16.82V75.58c0-13.56-9.14-21-24.39-21-8.52,0-16.94,2-26,6.1l6.1,12.52c6.52-2.74,12-4.42,16.83-4.42,7,0,10.62,2.73,10.62,8.31v2.73a49.53,49.53,0,0,0-12.62-1.58c-14.31,0-22.93,6-22.93,16.73,0,9.78,7.78,17.24,20.19,17.24m-92.44-.94h18.09V82.42h30.29v28.82h18.09V37.62H489.43V65.91H459.14V37.62H441.05ZM372.12,83.37c0-8,6.31-14.1,14.62-14.1a17.22,17.22,0,0,1,11.78,4.32V93a16.36,16.36,0,0,1-11.78,4.42c-8.2,0-14.62-6.1-14.62-14.09m26.61,27.87h16.83V33.94l-17,3.68V58.55a28.3,28.3,0,0,0-14.2-3.68c-16.19,0-28.92,12.51-28.92,28.5A28.25,28.25,0,0,0,383.8,112a25.12,25.12,0,0,0,14.93-4.83Zm-77.19-42.7c5.36,0,9.88,3.47,11.67,8.83H310c1.68-5.57,5.89-8.83,11.57-8.83M292.83,83.47c0,16.2,13.25,28.82,30.28,28.82,9.36,0,16.2-2.53,23.25-8.42l-11.26-10c-2.63,2.74-6.52,4.21-11.14,4.21a14.39,14.39,0,0,1-13.68-8.83h39.65V85.05c0-17.67-11.88-30.39-28.08-30.39a28.57,28.57,0,0,0-29,28.81M263.49,53.08c6,0,9.36,3.78,9.36,8.31s-3.37,8.31-9.36,8.31H245.61V53.08Zm-36,58.16h18.09V84.42h13.77l13.89,26.82h20.19l-16.2-29.45a22.27,22.27,0,0,0,13.88-20.72c0-13.25-10.41-23.45-26-23.45H227.52Z" />
</svg>