<?xml version="1.0" encoding="utf-8"?>
<!-- Generator: Adobe Illustrator 23.1.1, SVG Export Plug-In . SVG Version: 6.00 Build 0)  -->
<svg version="1.1" id="Layer_1" xmlns="http://www.w3.org/2000/svg" xmlns:xlink="http://www.w3.org/1999/xlink" x="0px" y="0px"
	 viewBox="0 0 2193 244" height="30px" style="enable-background:new 0 0 2193 244;" xml:space="preserve">
<style type="text/css">
	.st0{fill:#EE0000;}
	.st1{fill:#FFFFFF;}
</style>
<title>Logo-Red_Hat-Managed_Integration-A-Reverse-RGB</title>
<path class="st0" d="M129.3,85c12.5,0,30.6-2.6,30.6-17.5c0-1.1-0.1-2.3-0.3-3.4l-7.4-32.4c-1.7-7.1-3.2-10.4-15.7-16.6
	C126.7,10.2,105.6,2,99.3,2c-5.8,0-7.6,7.5-14.4,7.5c-6.7,0-11.6-5.6-17.9-5.6C61,3.9,57,8,54,16.4c0,0-8.4,23.7-9.5,27.2
	c-0.2,0.6-0.3,1.3-0.2,1.9C44.3,54.8,80.6,85,129.3,85 M161.8,73.6c1.7,8.2,1.7,9.1,1.7,10.1c0,14-15.7,21.8-36.4,21.8
	c-46.8,0-87.8-27.4-87.8-45.5c0-2.5,0.5-5,1.5-7.3C24.1,53.5,2.3,56.5,2.3,75.7c0,31.5,74.6,70.3,133.6,70.3
	c45.3,0,56.7-20.5,56.7-36.7C192.6,96.6,181.6,82.2,161.8,73.6"/>
<path d="M161.8,73.6c1.7,8.2,1.7,9.1,1.7,10.1c0,14-15.7,21.8-36.4,21.8c-46.8,0-87.7-27.4-87.7-45.5c0-2.5,0.5-5,1.5-7.3l3.7-9.1
	c-0.2,0.6-0.3,1.3-0.2,1.9c0,9.2,36.3,39.5,85,39.5c12.5,0,30.6-2.6,30.6-17.5c0-1.1-0.1-2.3-0.3-3.4L161.8,73.6z"/>
<path class="st1" d="M239.1,160.3v59.3h-10.2v-72.8h14.6l22.9,46.5l22.8-46.5h14.6v72.8h-10.3v-59.4l-27.1,54.2L239.1,160.3z
	 M313.5,204.4c0-10.6,9-16.1,21.4-16.1c5,0,9.9,1,14.5,2.9v-5.6c0-7.5-4.5-11.2-12.9-11.2c-5.1,0-10.3,1.6-16.4,4.5l-3.9-7.8
	c7.5-3.5,14.4-5.4,21.7-5.4c13.6,0,21.6,6.7,21.6,18.9v35h-10.2V215c-4.6,3.8-10,5.5-16.4,5.5C321.4,220.5,313.5,213.8,313.5,204.4z
	 M335.3,212.8c5.1,0.2,10.1-1.6,14-5v-9.3c-4.2-2.2-8.9-3.3-13.6-3.1c-7.3,0-12.3,3.2-12.3,8.7C323.5,209.4,328.4,212.8,335.3,212.8
	z M371.5,166.6h10.4v5.3c4.2-4.2,10-6.5,15.9-6.3c12.2,0,20.6,8.5,20.6,20.7v33.3h-10.3V188c0-8.2-5-13.4-13.2-13.4
	c-5.2-0.2-10.2,2.4-13,6.9v38.1h-10.4L371.5,166.6z M427.9,204.4c0-10.6,9-16.1,21.4-16.1c5,0,9.9,1,14.5,2.9v-5.6
	c0-7.5-4.5-11.2-12.9-11.2c-5.1,0-10.3,1.6-16.4,4.5l-3.8-7.8c7.5-3.5,14.4-5.4,21.7-5.4c13.6,0,21.6,6.7,21.6,18.9v35h-10.2V215
	c-4.6,3.8-10,5.5-16.4,5.5C435.8,220.5,427.9,213.8,427.9,204.4z M449.7,212.8c5.1,0.2,10.1-1.6,14-5v-9.3
	c-4.2-2.2-8.9-3.3-13.6-3.1c-7.3,0-12.3,3.2-12.3,8.7C437.9,209.4,442.8,212.8,449.7,212.8z M483.6,192.8
	c-0.2-14.7,11.5-26.9,26.3-27.1c0.2,0,0.4,0,0.6,0c5.7,0,11.2,1.8,15.7,5.3v-4.4h10.3V220c0,13.9-8.7,21.4-24.2,21.4
	c-7.4,0.1-14.8-1.7-21.3-5.2l4.1-8.1c6,3.1,11.3,4.6,17,4.6c9.3,0,14.2-4.3,14.2-12.6v-5.7c-4.4,3.7-10,5.6-15.8,5.6
	C495.3,220,483.6,208,483.6,192.8z M511.5,210.9c5.5,0.2,10.8-2.1,14.6-6.1v-23.9c-3.7-4.1-9-6.3-14.6-6.1c-10,0-17.7,7.9-17.7,18.1
	S501.5,210.9,511.5,210.9z M572.8,165.8c14.6,0,25.6,12.1,25.6,27.7v3h-41.8c1.3,8.8,9,15.3,17.9,15.2c4.9,0.1,9.6-1.5,13.4-4.6
	l6.7,6.6c-5.8,4.7-13,7.2-20.5,7c-15.6,0-27.8-12-27.8-27.4C546.3,177.8,557.8,165.8,572.8,165.8z M556.6,188.7h31.4
	c-1.5-8.1-7.8-14.1-15.5-14.1C564.4,174.5,558.2,180.3,556.6,188.7L556.6,188.7z M649,214.6c-4.5,3.8-10.3,5.9-16.2,5.8
	c-15.1,0-26.7-12.2-26.7-27.4s11.7-27.2,26.9-27.2c5.7,0,11.3,1.8,15.9,5.2v-24.3l10.4-2.3v75.1H649V214.6z M634.2,211.3
	c5.6,0.2,10.9-2.2,14.7-6.3v-24c-3.8-4-9.1-6.3-14.7-6.2c-10.3,0-18,7.9-18,18.2C616.2,203.4,624.1,211.3,634.2,211.3z M694.4,146.7
	h10.9v72.8h-10.9V146.7z M1292.1,128.6h5v112.9h-5V128.6z M718.9,166.6h10.4v5.3c4.2-4.2,10-6.5,15.9-6.3c12.2,0,20.6,8.5,20.6,20.7
	v33.3h-10.3V188c0-8.2-5-13.4-13.2-13.4c-5.2-0.2-10.2,2.4-13,6.9v38.1h-10.4L718.9,166.6z M782.7,175.3h-11.2v-8.7h11.2v-13.5
	l10.3-2.5v16h15.6v8.7H793V204c0,5.4,2.2,7.4,7.8,7.4c2.6,0.1,5.2-0.4,7.6-1.2v8.7c-3.2,1-6.5,1.5-9.9,1.6c-10.3,0-15.8-4.9-15.8-14
	V175.3z M839.3,165.8c14.6,0,25.6,12.1,25.6,27.7v3h-41.8c1.3,8.8,9,15.3,17.9,15.2c4.9,0.1,9.6-1.5,13.4-4.6l6.7,6.6
	c-5.8,4.7-13,7.2-20.5,7c-15.6,0-27.8-12-27.8-27.4C812.8,177.8,824.3,165.8,839.3,165.8z M823.2,188.6h31.4
	c-1.5-8.1-7.8-14.1-15.5-14.1C831,174.5,824.8,180.3,823.2,188.6z M872.6,192.8c0-15.2,11.8-27.1,26.8-27.1c5.7,0,11.2,1.9,15.7,5.3
	v-4.4h10.3V220c0,13.9-8.7,21.4-24.2,21.4c-7.4,0.1-14.8-1.7-21.3-5.2l4.1-8.1c6,3.1,11.3,4.6,17,4.6c9.2,0,14.1-4.3,14.1-12.6v-5.7
	c-4.5,3.7-10.1,5.7-15.9,5.6C884.3,220,872.6,208,872.6,192.8z M900.5,210.9c5.5,0.2,10.8-2.1,14.6-6.1v-23.9
	c-3.7-4.1-9-6.3-14.6-6.1c-10,0-17.7,7.9-17.7,18.1S890.5,210.9,900.5,210.9z M937.5,166.6h10.4v6.6c3.2-4.9,8.6-7.8,14.5-7.7
	c1.8-0.1,3.7,0.2,5.4,0.8v9.4c-2-0.7-4.1-1.1-6.2-1.1c-5.5,0-10.7,2.7-13.6,9.6v35.5h-10.4V166.6z M971.4,204.4
	c0-10.6,9-16.1,21.4-16.1c5,0,9.9,1,14.5,2.9v-5.6c0-7.5-4.5-11.2-12.9-11.2c-5.1,0-10.3,1.6-16.4,4.5l-3.8-7.8
	c7.5-3.5,14.4-5.4,21.7-5.4c13.6,0,21.6,6.7,21.6,18.9v35h-10.2V215c-4.6,3.8-10,5.5-16.4,5.5C979.3,220.5,971.4,213.8,971.4,204.4z
	 M993.2,212.8c5.1,0.2,10.1-1.6,14-5v-9.3c-4.2-2.2-8.9-3.3-13.6-3.1c-7.3,0-12.3,3.2-12.3,8.7C981.4,209.4,986.3,212.8,993.2,212.8
	z M1034.3,175.3h-11.2v-8.7h11.2v-13.5l10.3-2.5v16h15.6v8.7h-15.6V204c0,5.4,2.2,7.4,7.8,7.4c2.6,0.1,5.2-0.4,7.6-1.2v8.7
	c-3.2,1-6.5,1.5-9.9,1.6c-10.3,0-15.8-4.9-15.8-14V175.3z M1066.6,151.6c0-3.6,2.9-6.4,6.4-6.4c3.6,0,6.4,2.9,6.4,6.5
	c0,3.6-2.9,6.4-6.4,6.4C1069.4,158.1,1066.6,155.2,1066.6,151.6z M1078.2,219.5h-10.4v-52.9h10.4V219.5z M1115.5,165.6
	c15.2,0,27.5,12.4,27.5,27.6c0,15.2-12.4,27.5-27.6,27.5c-15.2,0-27.5-12.4-27.5-27.6c0,0,0,0,0,0c-0.2-15,11.9-27.3,26.9-27.4
	C1115.1,165.6,1115.3,165.6,1115.5,165.6z M1115.5,174.7c-9.7,0-17.4,8-17.4,18.3s7.6,18.4,17.4,18.4s17.4-8.1,17.4-18.4
	S1125.2,174.7,1115.5,174.7L1115.5,174.7z M1152.8,166.6h10.4v5.3c4.2-4.2,10-6.5,15.9-6.3c12.2,0,20.6,8.5,20.6,20.7v33.3h-10.3
	V188c0-8.2-5-13.4-13.2-13.4c-5.2-0.2-10.2,2.4-13,6.9v38.1h-10.4V166.6z M581.5,94.3c0,11.9,7.2,17.7,20.2,17.7
	c4-0.1,8-0.7,11.9-1.7V96.5c-2.5,0.8-5.1,1.2-7.7,1.2c-5.4,0-7.4-1.7-7.4-6.7V69.8h15.6V55.6h-15.6v-18l-17,3.7v14.3h-11.3v14.2
	h11.2L581.5,94.3z M528.5,94.6c0-3.7,3.7-5.5,9.3-5.5c3.4,0,6.8,0.4,10.1,1.3v7.2c-3.2,1.8-6.9,2.7-10.6,2.6
	C531.8,100.2,528.6,98.1,528.5,94.6 M533.8,112.2c6,0,10.8-1.3,15.4-4.3v3.4h16.8V75.6c0-13.6-9.1-21-24.4-21c-8.5,0-16.9,2-26,6.1
	l6.1,12.5c6.5-2.7,12-4.4,16.8-4.4c7,0,10.6,2.7,10.6,8.3v2.7c-4.1-1.1-8.4-1.6-12.6-1.6c-14.3,0-22.9,6-22.9,16.7
	C513.6,104.8,521.3,112.2,533.8,112.2 M441.3,111.3h18.1V82.4h30.3v28.8h18.1V37.6h-18.1v28.3h-30.3V37.6h-18.1L441.3,111.3z
	 M372.4,83.4c0-8,6.3-14.1,14.6-14.1c4.3-0.1,8.5,1.4,11.8,4.3V93c-3.2,3-7.4,4.6-11.8,4.4C378.8,97.4,372.4,91.3,372.4,83.4
	 M399,111.2h16.8V33.9l-17,3.7v20.9c-4.3-2.5-9.2-3.7-14.2-3.7c-16.2,0-28.9,12.5-28.9,28.5C355.5,99,368,111.8,383.6,112
	c0.2,0,0.3,0,0.5,0c5.4,0,10.6-1.7,14.9-4.8V111.2z M321.8,68.5c5.4,0,9.9,3.5,11.7,8.8h-23.2C312,71.8,316.2,68.5,321.8,68.5
	 M293.1,83.5c0,16.2,13.2,28.8,30.3,28.8c9.4,0,16.2-2.5,23.2-8.4l-11.3-10c-2.6,2.7-6.5,4.2-11.1,4.2c-5.9,0.2-11.4-3.3-13.7-8.8
	h39.6v-4.2c0-17.7-11.9-30.4-28.1-30.4c-15.8-0.2-28.8,12.4-29,28.1C293.1,83,293.1,83.2,293.1,83.5 M263.8,53.1
	c6,0,9.4,3.8,9.4,8.3s-3.4,8.3-9.4,8.3h-17.9V53.1H263.8z M227.8,111.2h18.1V84.4h13.8l13.9,26.8h20.2l-16.2-29.5
	c8.4-3.4,13.9-11.6,13.9-20.7c0-13.2-10.4-23.5-26-23.5h-37.6L227.8,111.2z M1382.6,207.6l6.6-7.6c3.9,3.8,7.9,6.6,12,8.5
	c4.1,1.9,8.4,2.8,12.9,2.8c5.2,0,9.4-1.1,12.7-3.4c3.3-2.3,4.9-5.2,4.9-8.7c0-3.2-1.1-5.6-3.4-7.4s-6-3.1-11.3-4l-12.1-2
	c-6.6-1.1-11.6-3.2-14.8-6.4c-3.3-3.1-4.9-7.3-4.9-12.5c0-6.3,2.4-11.3,7.3-15.1c4.9-3.8,11.3-5.7,19.3-5.7c5.2,0,10.3,0.8,15.4,2.5
	c5.1,1.7,9.7,4.1,13.7,7.3l-6,8.3c-3.9-3-7.9-5.2-11.8-6.7c-3.9-1.5-7.9-2.2-11.9-2.2c-4.7,0-8.5,1-11.4,3c-2.9,2-4.3,4.6-4.3,7.8
	c0,3,1,5.2,3,6.8c2,1.5,5.3,2.7,9.9,3.5l11.7,1.9c7.6,1.2,13.2,3.5,16.8,6.8c3.6,3.3,5.4,7.7,5.4,13.3c0,3.3-0.7,6.3-2.1,9.1
	c-1.4,2.8-3.3,5.1-5.8,7c-2.5,1.9-5.6,3.4-9.1,4.5c-3.6,1.1-7.5,1.6-11.8,1.6c-5.8,0-11.4-1.1-16.7-3.4
	C1391.5,214.9,1386.8,211.7,1382.6,207.6z M1448.9,193.2c0-3.8,0.7-7.4,2.1-10.7c1.4-3.3,3.4-6.2,5.8-8.7c2.5-2.4,5.4-4.4,8.7-5.8
	c3.3-1.4,6.9-2.1,10.7-2.1c3.8,0,7.4,0.7,10.7,2.1c3.3,1.4,6.2,3.3,8.7,5.8c2.4,2.4,4.4,5.3,5.8,8.7c1.4,3.3,2.1,6.9,2.1,10.7
	c0,3.9-0.7,7.5-2.1,10.8c-1.4,3.3-3.3,6.2-5.8,8.7c-2.4,2.4-5.3,4.4-8.7,5.8c-3.3,1.4-6.9,2.1-10.7,2.1c-3.8,0-7.4-0.7-10.7-2.1
	c-3.3-1.4-6.3-3.3-8.7-5.8c-2.5-2.4-4.4-5.3-5.8-8.7C1449.6,200.6,1448.9,197,1448.9,193.2z M1476.2,211.5c4.8,0,8.8-1.8,12.1-5.3
	c3.3-3.5,5-7.9,5-13c0-5.1-1.7-9.4-5-12.9c-3.3-3.5-7.4-5.3-12.1-5.3s-8.8,1.8-12.2,5.3c-3.4,3.5-5.1,7.8-5.1,12.9
	c0,5.1,1.7,9.4,5,13C1467.3,209.7,1471.4,211.5,1476.2,211.5z M1523.7,144.9v74.6h-10.3v-72.3L1523.7,144.9z M1546,166.9v31.2
	c0,4.1,1.2,7.4,3.6,9.8c2.4,2.4,5.5,3.6,9.5,3.6c2.8,0,5.2-0.6,7.4-1.8c2.2-1.2,4-2.9,5.5-5.1v-37.7h10.3v52.6h-10.3v-5.3
	c-2.1,2.1-4.4,3.6-7.1,4.7c-2.7,1.1-5.6,1.6-8.7,1.6c-6,0-10.9-1.9-14.7-5.8c-3.8-3.9-5.7-8.8-5.7-14.9v-33H1546z M1601.3,206.5
	v-30.9h-11.2v-8.7h11.2v-13.4l10.2-2.5v15.9h15.5v8.7h-15.5v28.5c0,2.7,0.6,4.6,1.8,5.7c1.2,1.1,3.2,1.7,5.9,1.7
	c1.4,0,2.7-0.1,3.9-0.3s2.4-0.5,3.7-1v8.7c-1.4,0.5-3,0.9-4.8,1.1c-1.8,0.3-3.5,0.4-5,0.4c-5.1,0-9-1.2-11.7-3.6
	C1602.6,214.5,1601.3,211.1,1601.3,206.5z M1639.8,158.5c-1.7,0-3.2-0.6-4.4-1.9c-1.2-1.3-1.9-2.8-1.9-4.5c0-1.7,0.6-3.2,1.9-4.5
	c1.2-1.3,2.7-1.9,4.4-1.9c1.7,0,3.2,0.6,4.5,1.9c1.3,1.3,1.9,2.8,1.9,4.5c0,1.7-0.6,3.2-1.9,4.5
	C1643,157.8,1641.5,158.5,1639.8,158.5z M1645,166.9v52.6h-10.3v-52.6H1645z M1654.8,193.2c0-3.8,0.7-7.4,2.1-10.7
	c1.4-3.3,3.4-6.2,5.8-8.7c2.5-2.4,5.4-4.4,8.7-5.8c3.3-1.4,6.9-2.1,10.7-2.1c3.8,0,7.4,0.7,10.7,2.1c3.3,1.4,6.2,3.3,8.7,5.8
	c2.4,2.4,4.4,5.3,5.8,8.7c1.4,3.3,2.1,6.9,2.1,10.7c0,3.9-0.7,7.5-2.1,10.8c-1.4,3.3-3.3,6.2-5.8,8.7c-2.4,2.4-5.3,4.4-8.7,5.8
	c-3.3,1.4-6.9,2.1-10.7,2.1c-3.8,0-7.4-0.7-10.7-2.1c-3.3-1.4-6.3-3.3-8.7-5.8c-2.5-2.4-4.4-5.3-5.8-8.7
	C1655.5,200.6,1654.8,197,1654.8,193.2z M1682.2,211.5c4.8,0,8.8-1.8,12.1-5.3c3.3-3.5,5-7.9,5-13c0-5.1-1.7-9.4-5-12.9
	c-3.3-3.5-7.4-5.3-12.1-5.3c-4.8,0-8.8,1.8-12.2,5.3c-3.4,3.5-5.1,7.8-5.1,12.9c0,5.1,1.7,9.4,5,13
	C1673.3,209.7,1677.4,211.5,1682.2,211.5z M1719.3,219.5v-52.6h10.3v5.3c2.1-2.1,4.4-3.6,7.1-4.7c2.7-1.1,5.6-1.6,8.7-1.6
	c6,0,10.9,1.9,14.8,5.7c3.9,3.8,5.8,8.8,5.8,14.8v33.1h-10.3v-31.3c0-4.1-1.2-7.4-3.6-9.8c-2.4-2.4-5.5-3.6-9.5-3.6
	c-2.8,0-5.3,0.6-7.5,1.8c-2.2,1.2-4.1,2.9-5.5,5.1v37.8H1719.3z M1800.7,219.5v-72.3h53.3v9.5h-42.5v21.7h27.9v9.3h-27.9V210h42.9
	v9.5H1800.7z M1858.4,219.5l20.5-27l-19.6-25.6h12.1l13.5,18.1l13.5-18.1h11.7l-19.4,25.5l20.8,27.1h-12.2l-14.5-19.4l-14.7,19.4
	H1858.4z M1917.8,240.9v-74h10.2v5.1c2.1-1.9,4.6-3.4,7.3-4.4c2.8-1,5.7-1.5,8.8-1.5c3.7,0,7.2,0.7,10.4,2.1c3.2,1.4,6,3.3,8.4,5.7
	c2.4,2.4,4.3,5.3,5.6,8.6c1.4,3.3,2.1,6.9,2.1,10.6c0,3.8-0.7,7.4-2.1,10.7c-1.4,3.3-3.3,6.2-5.6,8.6c-2.4,2.4-5.2,4.3-8.5,5.7
	s-6.8,2.1-10.5,2.1c-2.9,0-5.7-0.4-8.4-1.3s-5.2-2.2-7.4-3.8v25.7H1917.8z M1942.8,175.1c-3,0-5.7,0.6-8.3,1.7
	c-2.5,1.1-4.7,2.7-6.4,4.6v23.8c1.7,1.9,3.8,3.4,6.4,4.5c2.6,1.1,5.4,1.7,8.3,1.7c5,0,9.2-1.7,12.7-5.2c3.4-3.4,5.1-7.8,5.1-12.9
	s-1.7-9.5-5.2-13C1951.9,176.8,1947.7,175.1,1942.8,175.1z M1990.8,144.9v74.6h-10.3v-72.3L1990.8,144.9z M2000.6,193.2
	c0-3.8,0.7-7.4,2.1-10.7c1.4-3.3,3.4-6.2,5.8-8.7c2.5-2.4,5.4-4.4,8.7-5.8c3.3-1.4,6.9-2.1,10.7-2.1c3.8,0,7.4,0.7,10.7,2.1
	c3.3,1.4,6.2,3.3,8.7,5.8c2.4,2.4,4.4,5.3,5.8,8.7c1.4,3.3,2.1,6.9,2.1,10.7c0,3.9-0.7,7.5-2.1,10.8c-1.4,3.3-3.3,6.2-5.8,8.7
	c-2.4,2.4-5.3,4.4-8.7,5.8c-3.3,1.4-6.9,2.1-10.7,2.1c-3.8,0-7.4-0.7-10.7-2.1c-3.3-1.4-6.2-3.3-8.7-5.8c-2.5-2.4-4.4-5.3-5.8-8.7
	C2001.3,200.6,2000.6,197,2000.6,193.2z M2028,211.5c4.8,0,8.8-1.8,12.1-5.3c3.3-3.5,5-7.9,5-13c0-5.1-1.7-9.4-5-12.9
	c-3.3-3.5-7.4-5.3-12.1-5.3c-4.8,0-8.8,1.8-12.2,5.3c-3.4,3.5-5.1,7.8-5.1,12.9c0,5.1,1.7,9.4,5,13
	C2019.1,209.7,2023.2,211.5,2028,211.5z M2065.1,219.5v-52.6h10.3v6.7c1.6-2.5,3.6-4.5,6.1-5.8c2.5-1.3,5.3-2,8.4-2
	c1.1,0,2.1,0.1,2.9,0.2c0.8,0.1,1.6,0.3,2.4,0.6v9.3c-1-0.3-2-0.6-3-0.8s-2.1-0.3-3.1-0.3c-3,0-5.7,0.8-8.1,2.4
	c-2.4,1.6-4.2,4-5.5,7.2v35.1H2065.1z M2149,213.5c-3,2.3-6.2,4.1-9.5,5.2c-3.3,1.1-6.9,1.7-10.8,1.7c-3.9,0-7.5-0.7-10.8-2.1
	c-3.4-1.4-6.3-3.3-8.8-5.7c-2.5-2.4-4.4-5.3-5.8-8.6c-1.4-3.3-2.1-6.9-2.1-10.8c0-3.8,0.7-7.3,2.1-10.6c1.4-3.3,3.2-6.2,5.6-8.6
	c2.3-2.4,5.1-4.3,8.4-5.7c3.2-1.4,6.7-2.1,10.3-2.1c3.6,0,6.9,0.7,10.1,2.1c3.1,1.4,5.8,3.3,8.1,5.8c2.2,2.4,4,5.4,5.3,8.7
	c1.3,3.4,2,7,2,10.8v3h-41.5c0.7,4.3,2.7,7.9,6,10.8c3.3,2.9,7.2,4.3,11.8,4.3c2.5,0,5-0.4,7.3-1.2s4.3-2,6-3.4L2149,213.5z
	 M2127.2,174.8c-3.9,0-7.4,1.3-10.3,3.9c-2.9,2.6-4.8,6-5.5,10.1h31.2c-0.8-4-2.6-7.3-5.4-10C2134.3,176.1,2131,174.8,2127.2,174.8z
	 M2162.6,219.5v-52.6h10.3v6.7c1.6-2.5,3.6-4.5,6.1-5.8c2.5-1.3,5.3-2,8.4-2c1.1,0,2.1,0.1,2.9,0.2c0.8,0.1,1.6,0.3,2.4,0.6v9.3
	c-1-0.3-2-0.6-3-0.8s-2.1-0.3-3.1-0.3c-3,0-5.7,0.8-8.1,2.4c-2.4,1.6-4.2,4-5.5,7.2v35.1H2162.6z"/>
</svg>
