<?xml version="1.0" encoding="utf-8"?>
<!-- Generator: Adobe Illustrator 24.0.3, SVG Export Plug-In . SVG Version: 6.00 Build 0)  -->
<svg width="190px" height="22.5px" version="1.1" id="Layer_1" xmlns="http://www.w3.org/2000/svg" xmlns:xlink="http://www.w3.org/1999/xlink" x="0px" y="0px"
	 viewBox="0 0 200 23" style="enable-background:new 0 0 200 23;" xml:space="preserve">
<style type="text/css">
	.st0{fill:#FFFFFF;}
</style>
<path class="st0" d="M4.97,14.71l1.54-1.79c0.91,0.89,1.86,1.54,2.81,1.99c0.97,0.45,1.97,0.67,3.01,0.67c1.21,0,2.19-0.26,2.96-0.8
	c0.76-0.54,1.15-1.21,1.15-2.03c0-0.74-0.26-1.32-0.8-1.73c-0.54-0.41-1.41-0.73-2.64-0.93l-2.83-0.46C8.64,9.38,7.48,8.88,6.7,8.15
	C5.94,7.43,5.55,6.44,5.55,5.23c0-1.47,0.58-2.64,1.71-3.53c1.15-0.89,2.66-1.34,4.52-1.34c1.21,0,2.42,0.2,3.61,0.6
	s2.27,0.97,3.22,1.71L17.21,4.6c-0.89-0.69-1.82-1.21-2.73-1.54c-0.91-0.35-1.84-0.52-2.77-0.52c-1.1,0-1.99,0.24-2.66,0.71
	S8.02,4.32,8.02,5.06c0,0.69,0.24,1.23,0.71,1.58c0.46,0.37,1.25,0.63,2.32,0.82l2.73,0.43c1.77,0.3,3.09,0.82,3.92,1.58
	c0.86,0.76,1.26,1.8,1.26,3.11c0,0.78-0.17,1.49-0.48,2.12c-0.32,0.65-0.78,1.19-1.36,1.64c-0.6,0.45-1.3,0.8-2.14,1.06
	c-0.84,0.24-1.75,0.37-2.75,0.37c-1.36,0-2.66-0.26-3.92-0.8S5.94,15.68,4.97,14.71z M20.46,11.35c0-0.89,0.17-1.71,0.5-2.51
	c0.33-0.78,0.78-1.45,1.36-2.03c0.58-0.58,1.26-1.02,2.05-1.36s1.62-0.5,2.51-0.5s1.73,0.17,2.51,0.5c0.78,0.33,1.45,0.78,2.03,1.36
	c0.58,0.58,1.02,1.25,1.36,2.03c0.33,0.78,0.5,1.62,0.5,2.51c0,0.91-0.17,1.75-0.5,2.53c-0.33,0.78-0.78,1.45-1.36,2.03
	c-0.58,0.58-1.25,1.02-2.03,1.36c-0.78,0.33-1.62,0.5-2.51,0.5s-1.73-0.17-2.51-0.5s-1.47-0.78-2.05-1.36
	c-0.58-0.58-1.04-1.25-1.36-2.03C20.63,13.1,20.46,12.26,20.46,11.35z M26.88,15.63c1.12,0,2.06-0.41,2.85-1.25
	c0.78-0.84,1.17-1.84,1.17-3.03c0-1.19-0.39-2.19-1.17-3.01c-0.78-0.82-1.73-1.23-2.85-1.23s-2.06,0.41-2.85,1.23
	s-1.19,1.82-1.19,3.01c0,1.19,0.39,2.21,1.17,3.03C24.79,15.22,25.74,15.63,26.88,15.63z M37.96,0.06v17.46h-2.42V0.6L37.96,0.06z
	 M43.18,5.21v7.31c0,0.97,0.28,1.73,0.84,2.31c0.56,0.56,1.3,0.84,2.21,0.84c0.65,0,1.23-0.15,1.75-0.43
	c0.52-0.28,0.95-0.69,1.28-1.19V5.21h2.42v12.31h-2.42V16.3c-0.48,0.48-1.04,0.86-1.65,1.1c-0.61,0.24-1.3,0.37-2.05,0.37
	c-1.39,0-2.55-0.45-3.44-1.36c-0.89-0.91-1.34-2.06-1.34-3.48V5.21H43.18z M56.13,14.47V7.24h-2.6V5.21h2.6V2.07l2.4-0.58v3.72h3.63
	v2.03h-3.63v6.68c0,0.63,0.15,1.08,0.43,1.34c0.28,0.26,0.74,0.39,1.39,0.39c0.33,0,0.63-0.02,0.91-0.06
	c0.26-0.04,0.56-0.11,0.86-0.22v2.03c-0.32,0.11-0.71,0.2-1.12,0.26c-0.43,0.06-0.82,0.09-1.17,0.09c-1.19,0-2.1-0.28-2.73-0.84
	C56.44,16.35,56.13,15.53,56.13,14.47z M65.15,3.22c-0.41,0-0.74-0.15-1.04-0.45s-0.43-0.65-0.43-1.06s0.15-0.76,0.43-1.06
	c0.3-0.3,0.63-0.45,1.04-0.45s0.76,0.15,1.06,0.45s0.45,0.65,0.45,1.06s-0.15,0.76-0.45,1.06C65.89,3.07,65.54,3.22,65.15,3.22z
	 M66.35,5.21v12.31h-2.42V5.21H66.35z M68.64,11.35c0-0.89,0.17-1.71,0.5-2.51c0.33-0.78,0.78-1.45,1.36-2.03
	c0.58-0.58,1.26-1.02,2.05-1.36s1.62-0.5,2.51-0.5s1.71,0.17,2.51,0.5c0.78,0.33,1.45,0.78,2.03,1.36c0.58,0.58,1.02,1.25,1.36,2.03
	c0.33,0.78,0.5,1.62,0.5,2.51c0,0.91-0.17,1.75-0.5,2.53c-0.33,0.78-0.78,1.45-1.36,2.03c-0.58,0.58-1.25,1.02-2.03,1.36
	s-1.62,0.5-2.51,0.5s-1.73-0.17-2.51-0.5s-1.47-0.78-2.05-1.36c-0.58-0.58-1.04-1.25-1.36-2.03C68.81,13.1,68.64,12.26,68.64,11.35z
	 M75.06,15.63c1.12,0,2.06-0.41,2.85-1.25s1.17-1.84,1.17-3.03c0-1.19-0.39-2.19-1.17-3.01s-1.73-1.23-2.85-1.23
	s-2.06,0.41-2.85,1.23s-1.19,1.82-1.19,3.01c0,1.19,0.39,2.21,1.17,3.03C72.97,15.22,73.92,15.63,75.06,15.63z M83.72,17.52V5.21
	h2.42v1.23c0.48-0.48,1.04-0.86,1.65-1.1s1.3-0.37,2.05-0.37c1.39,0,2.55,0.45,3.46,1.34s1.36,2.05,1.36,3.48v7.74h-2.42V10.2
	c0-0.97-0.28-1.73-0.84-2.29s-1.3-0.84-2.21-0.84c-0.65,0-1.23,0.13-1.75,0.41s-0.95,0.67-1.3,1.19v8.85H83.72z M102.78,17.52V0.6
	h12.46v2.23h-9.93v5.08h6.53v2.18h-6.53v5.21h10.04v2.23H102.78z M116.28,17.52l4.8-6.32l-4.59-5.99h2.83l3.16,4.24l3.16-4.24h2.73
	l-4.54,5.97l4.85,6.34h-2.85l-3.38-4.54l-3.44,4.54H116.28z M130.17,22.52V5.21h2.4V6.4c0.5-0.45,1.08-0.8,1.71-1.02
	c0.65-0.24,1.34-0.35,2.06-0.35c0.87,0,1.69,0.17,2.44,0.5c0.76,0.33,1.41,0.78,1.97,1.34c0.56,0.56,1,1.23,1.32,2.01
	c0.32,0.78,0.48,1.6,0.48,2.49s-0.17,1.73-0.48,2.51c-0.32,0.78-0.76,1.45-1.32,2.03c-0.56,0.56-1.23,1-1.99,1.34
	c-0.76,0.33-1.6,0.5-2.47,0.5c-0.67,0-1.34-0.11-1.97-0.32c-0.63-0.2-1.21-0.5-1.73-0.89v6.02h-2.42V22.52z M136.01,7.13
	c-0.69,0-1.34,0.13-1.93,0.39c-0.6,0.26-1.1,0.61-1.51,1.1v5.56c0.39,0.45,0.87,0.8,1.49,1.06c0.6,0.26,1.25,0.39,1.95,0.39
	c1.17,0,2.16-0.41,2.96-1.21c0.8-0.8,1.19-1.82,1.19-3.01s-0.41-2.21-1.21-3.03C138.15,7.54,137.18,7.13,136.01,7.13z M147.26,0.06
	v17.46h-2.42V0.6L147.26,0.06z M149.55,11.35c0-0.89,0.17-1.71,0.5-2.51c0.33-0.78,0.78-1.45,1.36-2.03
	c0.58-0.58,1.26-1.02,2.05-1.36c0.78-0.33,1.62-0.5,2.51-0.5c0.89,0,1.71,0.17,2.51,0.5c0.78,0.33,1.45,0.78,2.03,1.36
	s1.02,1.25,1.36,2.03c0.33,0.78,0.5,1.62,0.5,2.51c0,0.91-0.17,1.75-0.5,2.53c-0.33,0.78-0.78,1.45-1.36,2.03
	c-0.58,0.58-1.25,1.02-2.03,1.36c-0.78,0.33-1.62,0.5-2.51,0.5c-0.89,0-1.73-0.17-2.51-0.5c-0.78-0.33-1.47-0.78-2.05-1.36
	c-0.58-0.58-1.04-1.25-1.36-2.03C149.72,13.1,149.55,12.26,149.55,11.35z M155.96,15.63c1.12,0,2.06-0.41,2.85-1.25
	s1.17-1.84,1.17-3.03c0-1.19-0.39-2.19-1.17-3.01s-1.73-1.23-2.85-1.23c-1.12,0-2.06,0.41-2.85,1.23s-1.19,1.82-1.19,3.01
	c0,1.19,0.39,2.21,1.17,3.03C153.88,15.22,154.83,15.63,155.96,15.63z M164.63,17.52V5.21h2.42v1.58c0.37-0.6,0.84-1.06,1.43-1.36
	c0.58-0.32,1.23-0.46,1.95-0.46c0.26,0,0.48,0.02,0.67,0.06c0.19,0.04,0.37,0.07,0.56,0.15v2.18c-0.22-0.07-0.46-0.15-0.71-0.19
	c-0.24-0.06-0.48-0.07-0.73-0.07c-0.71,0-1.34,0.19-1.9,0.58c-0.56,0.37-0.99,0.93-1.3,1.67v8.18H164.63z M184.27,16.11
	c-0.71,0.54-1.45,0.95-2.23,1.23c-0.78,0.26-1.62,0.39-2.55,0.39c-0.91,0-1.75-0.17-2.53-0.5s-1.47-0.78-2.05-1.34
	c-0.58-0.56-1.04-1.25-1.36-2.03c-0.33-0.78-0.5-1.62-0.5-2.53c0-0.89,0.17-1.71,0.48-2.49c0.32-0.78,0.76-1.45,1.3-2.01
	s1.21-1,1.95-1.34c0.76-0.33,1.56-0.5,2.42-0.5c0.84,0,1.62,0.17,2.36,0.5c0.73,0.33,1.36,0.78,1.88,1.36s0.93,1.25,1.25,2.05
	c0.3,0.78,0.46,1.64,0.46,2.53v0.71h-9.73c0.17,1.02,0.63,1.86,1.39,2.53c0.78,0.67,1.69,1,2.75,1c0.6,0,1.17-0.09,1.71-0.3
	c0.54-0.19,1.02-0.46,1.39-0.8L184.27,16.11z M179.17,7.05c-0.91,0-1.73,0.3-2.4,0.91c-0.69,0.61-1.12,1.39-1.3,2.36h7.31
	c-0.19-0.93-0.6-1.71-1.26-2.34C180.83,7.37,180.04,7.05,179.17,7.05z M187.46,17.52V5.21h2.42v1.58c0.37-0.6,0.84-1.06,1.43-1.36
	c0.58-0.32,1.23-0.46,1.95-0.46c0.26,0,0.48,0.02,0.67,0.06c0.19,0.04,0.37,0.07,0.56,0.15v2.18c-0.22-0.07-0.46-0.15-0.71-0.19
	c-0.24-0.06-0.48-0.07-0.73-0.07c-0.71,0-1.34,0.19-1.9,0.58c-0.56,0.37-0.99,0.93-1.3,1.67v8.18H187.46z"/>
</svg>
