<?xml version="1.0" encoding="utf-8"?>
<!-- Generator: Adobe Illustrator 23.1.1, SVG Export Plug-In . SVG Version: 6.00 Build 0)  -->
<svg version="1.1" id="Layer_1" xmlns="http://www.w3.org/2000/svg" xmlns:xlink="http://www.w3.org/1999/xlink" x="0px" y="0px"
	 viewBox="0 0 1019.2 121" height="22.5px" style="enable-background:new 0 0 1019.2 121;" xml:space="preserve">
<style type="text/css">
	.st0{fill:#FFFFFF;}
</style>
<title>Logo-Red_Hat-Managed_Integration-A-Reverse-RGB</title>
<path class="st0" d="M0,78.9l8.3-9.6c4.9,4.8,10,8.3,15.1,10.7c5.2,2.4,10.6,3.6,16.2,3.6c6.5,0,11.8-1.4,15.9-4.3
	c4.1-2.9,6.2-6.5,6.2-10.9c0-4-1.4-7.1-4.3-9.3s-7.6-3.9-14.2-5l-15.2-2.5c-8.3-1.4-14.5-4.1-18.7-8c-4.1-3.9-6.2-9.2-6.2-15.7
	c0-7.9,3.1-14.2,9.2-19c6.2-4.8,14.3-7.2,24.3-7.2c6.5,0,13,1.1,19.4,3.2c6.4,2.1,12.2,5.2,17.3,9.2l-7.5,10.4
	C61,20.8,56,18,51.1,16.2c-4.9-1.9-9.9-2.8-14.9-2.8c-5.9,0-10.7,1.3-14.3,3.8c-3.6,2.5-5.5,5.8-5.5,9.8c0,3.7,1.3,6.6,3.8,8.5
	c2.5,2,6.7,3.4,12.5,4.4l14.7,2.3c9.5,1.6,16.6,4.4,21.1,8.5c4.6,4.1,6.8,9.7,6.8,16.7c0,4.2-0.9,8-2.6,11.4
	c-1.7,3.5-4.2,6.4-7.3,8.8c-3.2,2.4-7,4.3-11.5,5.7c-4.5,1.3-9.4,2-14.8,2c-7.3,0-14.3-1.4-21.1-4.3C11.2,88.1,5.2,84.1,0,78.9z
	 M83.3,60.8c0-4.8,0.9-9.2,2.7-13.5c1.8-4.2,4.2-7.8,7.3-10.9c3.1-3.1,6.8-5.5,11-7.3c4.2-1.8,8.7-2.7,13.5-2.7
	c4.8,0,9.3,0.9,13.5,2.7c4.2,1.8,7.8,4.2,10.9,7.3c3.1,3.1,5.5,6.7,7.3,10.9c1.8,4.2,2.7,8.7,2.7,13.5c0,4.9-0.9,9.4-2.7,13.6
	c-1.8,4.2-4.2,7.8-7.3,10.9c-3.1,3.1-6.7,5.5-10.9,7.3c-4.2,1.8-8.7,2.7-13.5,2.7c-4.8,0-9.3-0.9-13.5-2.7c-4.2-1.8-7.9-4.2-11-7.3
	c-3.1-3.1-5.6-6.7-7.3-10.9C84.2,70.2,83.3,65.7,83.3,60.8z M117.8,83.8c6,0,11.1-2.2,15.3-6.7c4.2-4.5,6.3-9.9,6.3-16.3
	c0-6.4-2.1-11.8-6.3-16.2c-4.2-4.4-9.3-6.6-15.3-6.6s-11.1,2.2-15.3,6.6c-4.2,4.4-6.4,9.8-6.4,16.2c0,6.4,2.1,11.9,6.3,16.3
	C106.6,81.6,111.7,83.8,117.8,83.8z M177.4,0.1V94h-13V3L177.4,0.1z M205.5,27.8v39.3c0,5.2,1.5,9.3,4.5,12.4c3,3,7,4.5,11.9,4.5
	c3.5,0,6.6-0.8,9.4-2.3c2.8-1.5,5.1-3.7,6.9-6.4V27.8h13V94h-13v-6.6c-2.6,2.6-5.6,4.6-8.9,5.9c-3.3,1.3-7,2-11,2
	c-7.5,0-13.7-2.4-18.5-7.3c-4.8-4.9-7.2-11.1-7.2-18.7V27.8H205.5z M275.1,77.6V38.7h-14V27.8h14V10.9l12.9-3.1v20h19.5v10.9h-19.5
	v35.9c0,3.4,0.8,5.8,2.3,7.2c1.5,1.4,4,2.1,7.5,2.1c1.8,0,3.4-0.1,4.9-0.3c1.4-0.2,3-0.6,4.6-1.2v10.9c-1.7,0.6-3.8,1.1-6,1.4
	c-2.3,0.3-4.4,0.5-6.3,0.5c-6.4,0-11.3-1.5-14.7-4.5C276.8,87.7,275.1,83.3,275.1,77.6z M323.6,17.1c-2.2,0-4-0.8-5.6-2.4
	c-1.6-1.6-2.3-3.5-2.3-5.7c0-2.2,0.8-4.1,2.3-5.7c1.6-1.6,3.4-2.4,5.6-2.4c2.2,0,4.1,0.8,5.7,2.4c1.6,1.6,2.4,3.5,2.4,5.7
	c0,2.2-0.8,4.1-2.4,5.7C327.6,16.3,325.7,17.1,323.6,17.1z M330.1,27.8V94h-13V27.8H330.1z M342.4,60.8c0-4.8,0.9-9.2,2.7-13.5
	c1.8-4.2,4.2-7.8,7.3-10.9c3.1-3.1,6.8-5.5,11-7.3c4.2-1.8,8.7-2.7,13.5-2.7c4.8,0,9.2,0.9,13.5,2.7c4.2,1.8,7.8,4.2,10.9,7.3
	c3.1,3.1,5.5,6.7,7.3,10.9c1.8,4.2,2.7,8.7,2.7,13.5c0,4.9-0.9,9.4-2.7,13.6c-1.8,4.2-4.2,7.8-7.3,10.9c-3.1,3.1-6.7,5.5-10.9,7.3
	c-4.2,1.8-8.7,2.7-13.5,2.7c-4.8,0-9.3-0.9-13.5-2.7c-4.2-1.8-7.9-4.2-11-7.3c-3.1-3.1-5.6-6.7-7.3-10.9
	C343.3,70.2,342.4,65.7,342.4,60.8z M376.9,83.8c6,0,11.1-2.2,15.3-6.7c4.2-4.5,6.3-9.9,6.3-16.3c0-6.4-2.1-11.8-6.3-16.2
	c-4.2-4.4-9.3-6.6-15.3-6.6c-6,0-11.1,2.2-15.3,6.6c-4.2,4.4-6.4,9.8-6.4,16.2c0,6.4,2.1,11.9,6.3,16.3
	C365.7,81.6,370.8,83.8,376.9,83.8z M423.5,94V27.8h13v6.6c2.6-2.6,5.6-4.6,8.9-5.9c3.3-1.3,7-2,11-2c7.5,0,13.7,2.4,18.6,7.2
	c4.9,4.8,7.3,11,7.3,18.7V94h-13V54.6c0-5.2-1.5-9.3-4.5-12.3c-3-3-7-4.5-11.9-4.5c-3.5,0-6.6,0.7-9.4,2.2c-2.8,1.5-5.1,3.6-7,6.4
	V94H423.5z M526,94V3H593v12h-53.4v27.3h35.1v11.7h-35.1V82h54v12H526z M598.6,94L624.4,60l-24.7-32.2h15.2l17,22.8l17-22.8h14.7
	l-24.4,32.1L665.3,94H650l-18.2-24.4L613.3,94H598.6z M673.3,120.9V27.8h12.9v6.4c2.7-2.4,5.8-4.3,9.2-5.5c3.5-1.3,7.2-1.9,11.1-1.9
	c4.7,0,9.1,0.9,13.1,2.7c4.1,1.8,7.6,4.2,10.6,7.2c3,3,5.4,6.6,7.1,10.8c1.7,4.2,2.6,8.6,2.6,13.4c0,4.8-0.9,9.3-2.6,13.5
	c-1.7,4.2-4.1,7.8-7.1,10.9c-3,3-6.6,5.4-10.7,7.2s-8.6,2.7-13.3,2.7c-3.6,0-7.2-0.6-10.6-1.7c-3.4-1.1-6.5-2.7-9.3-4.8v32.4H673.3z
	 M704.7,38.1c-3.7,0-7.2,0.7-10.4,2.1c-3.2,1.4-5.9,3.3-8.1,5.9v29.9c2.1,2.4,4.7,4.3,8,5.7c3.2,1.4,6.7,2.1,10.5,2.1
	c6.3,0,11.6-2.2,15.9-6.5c4.3-4.3,6.4-9.8,6.4-16.2s-2.2-11.9-6.5-16.3C716.2,40.3,711,38.1,704.7,38.1z M765.2,0.1V94h-13V3
	L765.2,0.1z M777.5,60.8c0-4.8,0.9-9.2,2.7-13.5c1.8-4.2,4.2-7.8,7.3-10.9c3.1-3.1,6.8-5.5,11-7.3c4.2-1.8,8.7-2.7,13.5-2.7
	c4.8,0,9.2,0.9,13.5,2.7c4.2,1.8,7.8,4.2,10.9,7.3c3.1,3.1,5.5,6.7,7.3,10.9c1.8,4.2,2.7,8.7,2.7,13.5c0,4.9-0.9,9.4-2.7,13.6
	c-1.8,4.2-4.2,7.8-7.3,10.9c-3.1,3.1-6.7,5.5-10.9,7.3c-4.2,1.8-8.7,2.7-13.5,2.7c-4.8,0-9.3-0.9-13.5-2.7c-4.2-1.8-7.9-4.2-11-7.3
	c-3.1-3.1-5.6-6.7-7.3-10.9C778.4,70.2,777.5,65.7,777.5,60.8z M812,83.8c6,0,11.1-2.2,15.3-6.7c4.2-4.5,6.3-9.9,6.3-16.3
	c0-6.4-2.1-11.8-6.3-16.2c-4.2-4.4-9.3-6.6-15.3-6.6c-6,0-11.1,2.2-15.3,6.6c-4.2,4.4-6.4,9.8-6.4,16.2c0,6.4,2.1,11.9,6.3,16.3
	C800.8,81.6,805.9,83.8,812,83.8z M858.6,94V27.8h13v8.5c2-3.2,4.5-5.7,7.7-7.3c3.1-1.7,6.6-2.5,10.5-2.5c1.4,0,2.6,0.1,3.6,0.3
	c1,0.2,2,0.4,3,0.8v11.7c-1.2-0.4-2.5-0.8-3.8-1c-1.3-0.3-2.6-0.4-3.9-0.4c-3.8,0-7.2,1-10.2,3.1c-3,2-5.3,5-7,9V94H858.6z
	 M964.2,86.4c-3.8,2.9-7.8,5.1-12,6.6c-4.2,1.4-8.7,2.1-13.7,2.1c-4.9,0-9.4-0.9-13.6-2.7c-4.2-1.8-7.9-4.2-11-7.2
	c-3.1-3-5.6-6.7-7.3-10.9c-1.8-4.2-2.7-8.7-2.7-13.6c0-4.8,0.9-9.2,2.6-13.4c1.7-4.2,4.1-7.8,7-10.8c2.9-3,6.5-5.4,10.5-7.2
	c4.1-1.8,8.4-2.7,13-2.7c4.5,0,8.7,0.9,12.7,2.7c3.9,1.8,7.3,4.2,10.1,7.3c2.8,3.1,5,6.7,6.7,11c1.6,4.2,2.5,8.8,2.5,13.6v3.8h-52.3
	c0.9,5.5,3.4,10,7.5,13.6c4.2,3.6,9.1,5.4,14.8,5.4c3.2,0,6.3-0.5,9.2-1.6c2.9-1,5.5-2.5,7.5-4.3L964.2,86.4z M936.8,37.7
	c-4.9,0-9.3,1.6-12.9,4.9c-3.7,3.3-6,7.5-7,12.7h39.3c-1-5-3.2-9.2-6.8-12.6C945.7,39.4,941.5,37.7,936.8,37.7z M981.4,94V27.8h13
	v8.5c2-3.2,4.5-5.7,7.7-7.3c3.1-1.7,6.6-2.5,10.5-2.5c1.4,0,2.6,0.1,3.6,0.3c1,0.2,2,0.4,3,0.8v11.7c-1.2-0.4-2.5-0.8-3.8-1
	c-1.3-0.3-2.6-0.4-3.9-0.4c-3.8,0-7.2,1-10.2,3.1c-3,2-5.3,5-7,9V94H981.4z"/>
</svg>
