<?xml version="1.0" encoding="utf-8"?>
<!-- Generator: Adobe Illustrator 22.1.0, SVG Export Plug-In . SVG Version: 6.00 Build 0)  -->
<svg version="1.1" id="Layer_1" xmlns="http://www.w3.org/2000/svg" xmlns:xlink="http://www.w3.org/1999/xlink" x="0px" y="0px"
	 viewBox="0 0 600 600" style="enable-background:new 0 0 600 600;" xml:space="preserve">
<style type="text/css">
	.st0{fill:none;}
	.st1{fill:none;stroke:#FFFFFF;stroke-width:2;stroke-linecap:round;stroke-dasharray:188.5,188.5;stroke-dashoffset:188;}
	.st2{fill:none;stroke:#FFFFFF;stroke-width:2;stroke-linecap:round;stroke-dasharray:0,189.81;stroke-dashoffset:189;}
	.st3{fill:none;stroke:#FFFFFF;stroke-width:2;}
	.st4{opacity:0.9939;fill:none;stroke:#FFFFFF;stroke-linejoin:round;enable-background:new    ;}
	.st5{fill:none;stroke:#FFFFFF;stroke-linejoin:round;}
	.st6{opacity:0.9953;fill:none;stroke:#FFFFFF;stroke-linejoin:round;enable-background:new    ;}
	.st7{opacity:0.6;fill:#0088CE;stroke:#FFFFFF;stroke-linejoin:round;enable-background:new    ;}
	.st8{opacity:0.9979;fill:none;stroke:#FFFFFF;stroke-width:2;enable-background:new    ;}
	.st9{fill:none;stroke:#FFFFFF;stroke-width:2;stroke-linecap:round;stroke-linejoin:round;stroke-dasharray:380,380;}
	.st10{fill:none;stroke:#FFFFFF;stroke-width:2;stroke-dasharray:107,107;stroke-dashoffset:1;}
	.st11{fill:none;stroke:#FFFFFF;stroke-linejoin:round;stroke-opacity:0;}
	.st12{fill:none;stroke:#FFFFFF;stroke-width:2;stroke-dasharray:107,107;}
	.st13{fill:none;stroke:#FFFFFF;stroke-width:2;stroke-dasharray:106.4,106.4;stroke-dashoffset:2;}
	.st14{fill:none;stroke:#FFFFFF;stroke-width:2;stroke-linecap:round;stroke-linejoin:round;}
	.st15{fill:none;stroke:#FFFFFF;stroke-width:2;stroke-linejoin:round;stroke-opacity:0;}
	.st16{fill:#FFFFFF;}
</style>
<rect class="st0" width="600" height="600"/>
<g id="Page-1" transform="translate(194,341) translate(-194,-341)">
	<g id="DottedField_MotionTest2">
		<g id="Parent" transform="translate(383,277)">
			<path id="ParentLineBack" class="st3" d="M80.2,0.8v94.8"/>
			<path id="ParentBase" class="st3" d="M79.9,189.5l-81.2-47.4l81.2-47.4l81.2,47.4L79.9,189.5z"/>
			<path id="ParentCoreRightBack" class="st4" d="M80.2,94.3l27.2,15.8V78.9l-0.3-0.1L80.2,63.2V94.3z"/>
			<path id="ParentCoreLeftFront" class="st5" d="M53,78.9l27.2,15.8v31.1L53,110.1V78.9z"/>
			<path id="ParentCoreLeftBack" class="st5" d="M80.2,94.3L53,110.1V78.9l0.3-0.1l26.9-15.6V94.3z"/>
			<path id="ParentCoreRightFront" class="st6" d="M107.4,78.9L80.2,94.7v31.1l27.2-15.7V78.9z"/>
			<path id="ParentFill" class="st7" d="M-1.4,47.5l81.9-48l81,48v93.7l-82,48.3l-80.9-48.3V47.5z"/>
			<path id="ParentTop" class="st3" d="M79.9,94.8L-2,47.4L79.9,0l81.9,47.4L79.9,94.8z"/>
			<path id="ParentLineLeft" class="st3" d="M-2,47.9v94.8"/>
			<path id="ParentLineFront" class="st3" d="M80.2,95.1v94.8"/>
			<path id="ParentLineRight" class="st8" d="M161.8,47.5v94.9"/>
		</g>
		<path id="LeftBase_1_" class="st9" d="M182.7,335.3l63,36.4l-82.2,47.6l-82.1-47.6l64.7-37.4"/>
		<g id="LeftCopy" transform="translate(83,217)">
			<path id="LeftBoxLineBack" class="st10" d="M80.3,13v74"/>
			<path id="LeftBoxFinal" class="st11" d="M-1.2,59.3v95.4V59.3z M80.3,106.9v95.4V106.9z M162.4,60.9v95.3V60.9z M80.5,107.8
				L-1.6,60.3l82.1-47.6l82.2,47.6L80.5,107.8z"/>
			<path id="LeftBoxFill" class="st7" d="M-0.4,60.5L81.1,14L162,60.5v93.7l-81.5,47.3l-80.9-47.3V60.5z"/>
			<path id="LeftBoxLineLeft" class="st12" d="M-1.2,61.3v93"/>
			<path id="LeftBoxLineFront" class="st13" d="M80.3,128.5V202"/>
			<path id="LeftBoxLineRight" class="st12" d="M162.4,61v93"/>
			<path id="LeftBox7_1_" class="st14" d="M62.4,97.6l-64-37L80.5,13l82.2,47.6L99.6,97"/>
		</g>
		<path id="RightBase_2_" class="st9" d="M427.5,193.1l63.2,36.7l-82.1,47.5l-27.2-15.7"/>
		<path id="RightBase_1_" class="st9" d="M381.4,261.6l-55-31.8l63.2-36.6"/>
		<g id="RightCopy" transform="translate(328,75)">
			<path id="RightBoxLineBack" class="st10" d="M80.3,13.3v75"/>
			<path id="RightBoxFinal" class="st15" d="M-1.2,59.3v95.4V59.3z M162.4,60.9v95.3V60.9z M80.5,107.8L-1.6,60.3l82.1-47.6
				l82.2,47.6L80.5,107.8z"/>
			<path id="RightBoxFill" class="st7" d="M-0.4,60.5L81.1,14L162,60.5v93.7l-81.5,47.3l-80.9-47.3V60.5z"/>
			<path id="RightBoxLineLeft" class="st12" d="M-1.2,61.3v93"/>
			<path id="RightBoxLineFront" class="st13" d="M80.3,130v72.5"/>
			<path id="RightBoxLineRight" class="st12" d="M162.4,61v93"/>
			<path id="RightBox7_1_" class="st14" d="M62.4,97.6l-64-37L80.5,13l82.2,47.6L99.4,97.2"/>
		</g>
	</g>
</g>
<g>
	<path class="st16" d="M164.5,348.4c-3.3,0-6.4-0.6-9.3-1.9c-2.9-1.2-5.4-3-7.6-5.2c-2.2-2.2-3.9-4.7-5.2-7.6
		c-1.2-2.9-1.9-6-1.9-9.3c0-3.3,0.6-6.4,1.9-9.3c1.3-2.9,3-5.4,5.2-7.6c2.2-2.2,4.7-3.9,7.6-5.2c2.9-1.2,6-1.9,9.3-1.9
		c3.3,0,6.4,0.6,9.3,1.9c2.9,1.3,5.4,3,7.6,5.2c2.2,2.2,3.9,4.7,5.2,7.6c1.2,2.9,1.9,6,1.9,9.3c0,3.3-0.6,6.4-1.9,9.3
		c-1.3,2.9-3,5.5-5.2,7.6c-2.2,2.2-4.7,3.9-7.6,5.2C170.9,347.8,167.8,348.4,164.5,348.4z M157.4,307.7c-2.2,0.9-4.1,2.2-5.8,3.9
		c-1.7,1.7-3,3.6-3.9,5.8c-1,2.2-1.5,4.6-1.5,7.1c0,2.5,0.5,4.9,1.5,7.1c0.9,2.2,2.2,4.1,3.9,5.8c1.7,1.6,3.6,2.9,5.8,3.9
		c2.2,1,4.6,1.5,7.1,1.5c2.5,0,4.9-0.5,7.1-1.5c2.2-0.9,4.1-2.2,5.8-3.9c1.7-1.6,3-3.6,3.9-5.8c1-2.2,1.5-4.6,1.5-7.1
		c0-2.5-0.5-4.9-1.5-7.1c-0.9-2.2-2.2-4.1-3.9-5.8c-1.7-1.7-3.6-3-5.8-3.9c-2.2-1-4.6-1.5-7.1-1.5
		C162,306.2,159.6,306.7,157.4,307.7z M174.7,329.8c0-0.1-0.1-0.2-0.2-0.3l-5.2-5.2l5.2-5.2c0.1-0.1,0.2-0.2,0.2-0.3
		c0-0.1,0-0.2,0-0.3c0-0.1,0-0.2,0-0.4c0-0.1-0.1-0.2-0.2-0.3l-3.7-3.7c-0.1-0.1-0.1-0.1-0.3-0.2c-0.1,0-0.2-0.1-0.4-0.1
		c-0.1,0-0.2,0-0.3,0c-0.1,0-0.2,0.1-0.3,0.2l-5.2,5.2l-5.2-5.2c-0.1-0.1-0.2-0.2-0.3-0.2c-0.1,0-0.2,0-0.3,0c-0.1,0-0.2,0-0.4,0.1
		c-0.1,0-0.2,0.1-0.3,0.2l-3.7,3.7c-0.1,0.1-0.2,0.1-0.2,0.3c0,0.1,0,0.2,0,0.4c0,0.1,0,0.2,0,0.3c0,0.1,0.1,0.2,0.2,0.3l5.2,5.2
		l-5.2,5.2c-0.1,0.1-0.2,0.2-0.2,0.3c0,0.1,0,0.2,0,0.3c0,0.1,0,0.2,0,0.3c0,0.1,0.1,0.2,0.2,0.3l3.7,3.6c0.1,0.1,0.1,0.2,0.3,0.2
		c0.1,0,0.2,0.1,0.4,0.1c0.1,0,0.2,0,0.3-0.1c0.1,0,0.2-0.1,0.3-0.2l5.2-5.2l5.2,5.2c0.1,0.1,0.2,0.2,0.3,0.2s0.2,0.1,0.3,0.1
		c0.1,0,0.2,0,0.3-0.1c0.1,0,0.2-0.1,0.3-0.2l3.6-3.6c0.1-0.1,0.2-0.2,0.2-0.3c0-0.1,0.1-0.2,0.1-0.3
		C174.8,330,174.7,329.9,174.7,329.8z"/>
</g>
<g>
	<path class="st16" d="M408.6,207.6c-3.3,0-6.4-0.6-9.3-1.9c-2.9-1.2-5.4-3-7.6-5.2c-2.2-2.2-3.9-4.7-5.2-7.6
		c-1.2-2.9-1.9-6-1.9-9.3c0-3.3,0.6-6.4,1.9-9.3c1.3-2.9,3-5.4,5.2-7.6c2.2-2.2,4.7-3.9,7.6-5.2c2.9-1.2,6-1.9,9.3-1.9
		c3.3,0,6.4,0.6,9.3,1.9c2.9,1.3,5.4,3,7.6,5.2c2.2,2.2,3.9,4.7,5.2,7.6c1.2,2.9,1.9,6,1.9,9.3c0,3.3-0.6,6.4-1.9,9.3
		c-1.3,2.9-3,5.5-5.2,7.6c-2.2,2.2-4.7,3.9-7.6,5.2C415,207,411.9,207.6,408.6,207.6z M401.5,166.8c-2.2,0.9-4.1,2.2-5.8,3.9
		c-1.7,1.7-3,3.6-3.9,5.8c-1,2.2-1.5,4.6-1.5,7.1c0,2.5,0.5,4.9,1.5,7.1c0.9,2.2,2.2,4.1,3.9,5.8c1.7,1.6,3.6,2.9,5.8,3.9
		c2.2,1,4.6,1.5,7.1,1.5c2.5,0,4.9-0.5,7.1-1.5c2.2-0.9,4.1-2.2,5.8-3.9c1.7-1.6,3-3.6,3.9-5.8c1-2.2,1.5-4.6,1.5-7.1
		c0-2.5-0.5-4.9-1.5-7.1c-0.9-2.2-2.2-4.1-3.9-5.8c-1.7-1.7-3.6-3-5.8-3.9c-2.2-1-4.6-1.5-7.1-1.5
		C406.1,165.4,403.7,165.9,401.5,166.8z M418.8,189c0-0.1-0.1-0.2-0.2-0.3l-5.2-5.2l5.2-5.2c0.1-0.1,0.2-0.2,0.2-0.3
		c0-0.1,0-0.2,0-0.3c0-0.1,0-0.2,0-0.4c0-0.1-0.1-0.2-0.2-0.3l-3.7-3.7c-0.1-0.1-0.1-0.1-0.3-0.2c-0.1,0-0.2-0.1-0.4-0.1
		c-0.1,0-0.2,0-0.3,0c-0.1,0-0.2,0.1-0.3,0.2l-5.2,5.2l-5.2-5.2c-0.1-0.1-0.2-0.2-0.3-0.2c-0.1,0-0.2,0-0.3,0c-0.1,0-0.2,0-0.4,0.1
		c-0.1,0-0.2,0.1-0.3,0.2l-3.7,3.7c-0.1,0.1-0.2,0.1-0.2,0.3c0,0.1,0,0.2,0,0.4c0,0.1,0,0.2,0,0.3c0,0.1,0.1,0.2,0.2,0.3l5.2,5.2
		l-5.2,5.2c-0.1,0.1-0.2,0.2-0.2,0.3c0,0.1,0,0.2,0,0.3c0,0.1,0,0.2,0,0.3c0,0.1,0.1,0.2,0.2,0.3l3.7,3.6c0.1,0.1,0.1,0.2,0.3,0.2
		c0.1,0,0.2,0.1,0.4,0.1c0.1,0,0.2,0,0.3-0.1c0.1,0,0.2-0.1,0.3-0.2l5.2-5.2l5.2,5.2c0.1,0.1,0.2,0.2,0.3,0.2s0.2,0.1,0.3,0.1
		c0.1,0,0.2,0,0.3-0.1c0.1,0,0.2-0.1,0.3-0.2l3.6-3.6c0.1-0.1,0.2-0.2,0.2-0.3c0-0.1,0.1-0.2,0.1-0.3
		C418.9,189.2,418.8,189.1,418.8,189z"/>
</g>
</svg>
